<svg width="25" height="18" viewBox="0 0 25 18" fill="none" xmlns="http://www.w3.org/2000/svg">
<path d="M16.8195 0.77832C18.9598 0.77832 21.0125 1.63811 22.5259 3.16854C24.0393 4.69897 24.8895 6.77467 24.8895 8.93903C24.8895 11.1034 24.0393 13.1791 22.5259 14.7095C21.0125 16.24 18.9598 17.0997 16.8195 17.0997L16.8195 8.93903V0.77832Z" fill="url(#paint0_linear_170_2452)"/>
<path d="M16.8195 8.93903C16.8195 13.4461 13.2064 17.0997 8.74948 17.0997C4.29252 17.0997 0.679445 13.4461 0.679445 8.93903C0.679445 4.43199 4.29252 0.77832 8.74948 0.77832C13.2064 0.77832 16.8195 4.43199 16.8195 8.93903Z" fill="url(#paint1_linear_170_2452)"/>
<defs>
<linearGradient id="paint0_linear_170_2452" x1="24.8894" y1="8.93903" x2="0.679443" y2="8.93903" gradientUnits="userSpaceOnUse">
<stop stop-color="#03A689"/>
<stop offset="1" stop-color="#9DD9EE"/>
</linearGradient>
<linearGradient id="paint1_linear_170_2452" x1="24.8894" y1="8.93903" x2="0.679443" y2="8.93903" gradientUnits="userSpaceOnUse">
<stop stop-color="#03A689"/>
<stop offset="1" stop-color="#9DD9EE"/>
</linearGradient>
</defs>
</svg>
