<?xml version="1.0" standalone="no"?>
<!DOCTYPE svg PUBLIC "-//W3C//DTD SVG 20010904//EN"
 "http://www.w3.org/TR/2001/REC-SVG-20010904/DTD/svg10.dtd">
<svg version="1.0" xmlns="http://www.w3.org/2000/svg"
 width="512.000000pt" height="512.000000pt" viewBox="0 0 512.000000 512.000000"
 preserveAspectRatio="xMidYMid meet">

  <defs>
    <linearGradient id="gradient" x1="100%" y1="100%" x2="100%" y2="0%" gradientTransform="rotate(45)">
      <stop offset="0%" style="stop-color:#D9EFF6;stop-opacity:1" />
      <stop offset="50%" style="stop-color:#9DD9EE;stop-opacity:1" />
      <stop offset="100%" style="stop-color:#08A0A0;stop-opacity:1" />
    </linearGradient>
  </defs>

  <g transform="translate(0.000000,512.000000) scale(0.100000,-0.100000)"
     fill="url(#gradient)" stroke="none">
    <path d="M2725 5106 c-16 -8 -220 -205 -452 -437 -407 -409 -422 -426 -428
    -469 -7 -51 4 -89 41 -137 58 -77 136 -111 209 -92 34 9 101 71 454 422 448
    446 459 460 446 545 -5 36 -17 56 -58 100 -75 79 -140 100 -212 68z"/>
    <path d="M3090 4734 c-36 -15 -756 -723 -831 -817 -44 -56 -56 -103 -40 -159
    14 -45 67 -107 118 -139 39 -24 116 -29 153 -9 21 11 33 2 209 -174 l186 -186
    -520 -520 -520 -520 -45 21 c-273 132 -427 -22 -296 -297 l35 -73 -112 -123
    c-155 -172 -394 -407 -512 -507 -116 -97 -290 -213 -437 -291 -205 -109 -383
    -266 -440 -386 -30 -63 -33 -77 -33 -164 0 -88 3 -101 33 -162 42 -85 105
    -148 190 -190 61 -30 74 -33 162 -33 146 1 221 41 351 188 90 102 141 177 228
    337 82 150 153 255 254 376 96 116 353 376 520 527 l118 107 61 -31 c79 -40
    180 -61 232 -49 78 17 126 78 126 158 0 44 -42 185 -63 210 -8 11 101 125 511
    535 l522 522 186 -186 c168 -168 185 -188 175 -207 -6 -11 -11 -45 -11 -75 0
    -44 5 -62 30 -95 38 -53 102 -100 147 -108 83 -16 88 -12 526 424 267 267 414
    421 427 448 38 78 22 141 -56 216 -63 60 -123 79 -180 56 l-39 -15 -556 554
    -556 555 15 44 c20 62 4 112 -56 177 -71 76 -135 94 -212 61z"/>
    <path d="M4860 2993 c-17 -3 -169 -149 -452 -431 -469 -470 -462 -461 -438
    -553 16 -57 102 -143 159 -159 93 -25 75 -38 548 434 379 378 433 436 438 469
    12 65 -2 105 -58 165 -71 75 -111 90 -197 75z"/>
    <path d="M2944 740 c-69 -10 -139 -43 -159 -74 -16 -24 -16 -28 0 -52 22 -34
    84 -61 171 -74 47 -7 333 -10 879 -8 766 3 813 4 863 22 134 48 134 124 0 172
    -50 18 -94 19 -878 20 -454 1 -848 -2 -876 -6z"/>
    <path d="M2647 419 c-93 -22 -167 -85 -187 -160 -19 -70 4 -133 69 -192 78
    -71 17 -68 1277 -65 l1130 3 59 30 c142 73 165 222 50 323 -81 71 -1 66 -1240
    68 -634 1 -1136 -2 -1158 -7z"/>
  </g>
</svg>
