<svg width="408" height="137" viewBox="0 0 408 137" fill="none" xmlns="http://www.w3.org/2000/svg">
<path d="M10.5361 10.5905C17.0238 4.16787 25.8228 0.55957 34.9978 0.55957V27.9585C38.2028 12.3259 52.1633 0.55957 68.8999 0.55957C85.6363 0.55957 99.5969 12.3259 102.802 27.9585V0.55957C111.977 0.55957 120.776 4.16787 127.264 10.5905C133.751 17.0134 137.396 25.7245 137.396 34.8076C137.396 43.8907 133.751 52.6019 127.264 59.0247C120.776 65.4474 111.977 69.0556 102.802 69.0556V41.6567C99.5969 57.2893 85.6363 69.0556 68.8999 69.0556C52.1633 69.0556 38.2028 57.2893 34.9978 41.6565V69.0556C25.8228 69.0556 17.0238 65.4474 10.5361 59.0247C4.0485 52.6019 0.403809 43.8907 0.403809 34.8076C0.403809 25.7245 4.0485 17.0134 10.5361 10.5905Z" fill="#D9D9D9"/>
<path d="M10.5361 10.5905C17.0238 4.16787 25.8228 0.55957 34.9978 0.55957V27.9585C38.2028 12.3259 52.1633 0.55957 68.8999 0.55957C85.6363 0.55957 99.5969 12.3259 102.802 27.9585V0.55957C111.977 0.55957 120.776 4.16787 127.264 10.5905C133.751 17.0134 137.396 25.7245 137.396 34.8076C137.396 43.8907 133.751 52.6019 127.264 59.0247C120.776 65.4474 111.977 69.0556 102.802 69.0556V41.6567C99.5969 57.2893 85.6363 69.0556 68.8999 69.0556C52.1633 69.0556 38.2028 57.2893 34.9978 41.6565V69.0556C25.8228 69.0556 17.0238 65.4474 10.5361 59.0247C4.0485 52.6019 0.403809 43.8907 0.403809 34.8076C0.403809 25.7245 4.0485 17.0134 10.5361 10.5905Z" fill="url(#paint0_linear_231_40)"/>
<path d="M204.499 34.8076C204.499 53.7223 189.166 69.0556 170.251 69.0556C151.337 69.0556 136.003 53.7223 136.003 34.8076C136.003 15.8929 151.337 0.55957 170.251 0.55957C189.166 0.55957 204.499 15.8929 204.499 34.8076Z" fill="#D9D9D9"/>
<path d="M204.499 34.8076C204.499 53.7223 189.166 69.0556 170.251 69.0556C151.337 69.0556 136.003 53.7223 136.003 34.8076C136.003 15.8929 151.337 0.55957 170.251 0.55957C189.166 0.55957 204.499 15.8929 204.499 34.8076Z" fill="url(#paint1_linear_231_40)"/>
<path d="M213.22 10.5905C219.708 4.16787 228.507 0.55957 237.682 0.55957V27.9585C240.887 12.3259 254.847 0.55957 271.584 0.55957C288.32 0.55957 302.281 12.3259 305.486 27.9585V0.55957C314.661 0.55957 323.46 4.16787 329.947 10.5905C336.435 17.0134 340.08 25.7245 340.08 34.8076C340.08 43.8907 336.435 52.6019 329.947 59.0247C323.46 65.4474 314.661 69.0556 305.486 69.0556V41.6567C302.281 57.2893 288.32 69.0556 271.584 69.0556C254.847 69.0556 240.887 57.2893 237.682 41.6565V69.0556C228.507 69.0556 219.708 65.4474 213.22 59.0247C206.732 52.6019 203.088 43.8907 203.088 34.8076C203.088 25.7245 206.732 17.0134 213.22 10.5905Z" fill="#D9D9D9"/>
<path d="M213.22 10.5905C219.708 4.16787 228.507 0.55957 237.682 0.55957V27.9585C240.887 12.3259 254.847 0.55957 271.584 0.55957C288.32 0.55957 302.281 12.3259 305.486 27.9585V0.55957C314.661 0.55957 323.46 4.16787 329.947 10.5905C336.435 17.0134 340.08 25.7245 340.08 34.8076C340.08 43.8907 336.435 52.6019 329.947 59.0247C323.46 65.4474 314.661 69.0556 305.486 69.0556V41.6567C302.281 57.2893 288.32 69.0556 271.584 69.0556C254.847 69.0556 240.887 57.2893 237.682 41.6565V69.0556C228.507 69.0556 219.708 65.4474 213.22 59.0247C206.732 52.6019 203.088 43.8907 203.088 34.8076C203.088 25.7245 206.732 17.0134 213.22 10.5905Z" fill="url(#paint2_linear_231_40)"/>
<path d="M407.183 34.8076C407.183 53.7223 391.85 69.0556 372.935 69.0556C354.021 69.0556 338.687 53.7223 338.687 34.8076C338.687 15.8929 354.021 0.55957 372.935 0.55957C391.85 0.55957 407.183 15.8929 407.183 34.8076Z" fill="#D9D9D9"/>
<path d="M407.183 34.8076C407.183 53.7223 391.85 69.0556 372.935 69.0556C354.021 69.0556 338.687 53.7223 338.687 34.8076C338.687 15.8929 354.021 0.55957 372.935 0.55957C391.85 0.55957 407.183 15.8929 407.183 34.8076Z" fill="url(#paint3_linear_231_40)"/>
<path d="M10.5361 77.688C17.0238 71.2653 25.8228 67.657 34.9978 67.657V95.056C38.2028 79.4233 52.1633 67.657 68.8999 67.657C85.6363 67.657 99.5969 79.4233 102.802 95.056V67.657C111.977 67.657 120.776 71.2653 127.264 77.688C133.751 84.1108 137.396 92.822 137.396 101.905C137.396 110.988 133.751 119.699 127.264 126.122C120.776 132.545 111.977 136.153 102.802 136.153V108.754C99.5969 124.387 85.6363 136.153 68.8999 136.153C52.1633 136.153 38.2028 124.387 34.9978 108.754V136.153C25.8228 136.153 17.0238 132.545 10.5361 126.122C4.0485 119.699 0.403809 110.988 0.403809 101.905C0.403809 92.822 4.0485 84.1108 10.5361 77.688Z" fill="#D9D9D9"/>
<path d="M10.5361 77.688C17.0238 71.2653 25.8228 67.657 34.9978 67.657V95.056C38.2028 79.4233 52.1633 67.657 68.8999 67.657C85.6363 67.657 99.5969 79.4233 102.802 95.056V67.657C111.977 67.657 120.776 71.2653 127.264 77.688C133.751 84.1108 137.396 92.822 137.396 101.905C137.396 110.988 133.751 119.699 127.264 126.122C120.776 132.545 111.977 136.153 102.802 136.153V108.754C99.5969 124.387 85.6363 136.153 68.8999 136.153C52.1633 136.153 38.2028 124.387 34.9978 108.754V136.153C25.8228 136.153 17.0238 132.545 10.5361 126.122C4.0485 119.699 0.403809 110.988 0.403809 101.905C0.403809 92.822 4.0485 84.1108 10.5361 77.688Z" fill="url(#paint4_linear_231_40)"/>
<path d="M204.499 101.905C204.499 120.82 189.166 136.153 170.251 136.153C151.337 136.153 136.003 120.82 136.003 101.905C136.003 82.9904 151.337 67.657 170.251 67.657C189.166 67.657 204.499 82.9904 204.499 101.905Z" fill="#D9D9D9"/>
<path d="M204.499 101.905C204.499 120.82 189.166 136.153 170.251 136.153C151.337 136.153 136.003 120.82 136.003 101.905C136.003 82.9904 151.337 67.657 170.251 67.657C189.166 67.657 204.499 82.9904 204.499 101.905Z" fill="url(#paint5_linear_231_40)"/>
<path d="M213.22 77.688C219.708 71.2653 228.507 67.657 237.682 67.657V95.056C240.887 79.4233 254.847 67.657 271.584 67.657C288.32 67.657 302.281 79.4233 305.486 95.056V67.657C314.661 67.657 323.46 71.2653 329.947 77.688C336.435 84.1108 340.08 92.822 340.08 101.905C340.08 110.988 336.435 119.699 329.947 126.122C323.46 132.545 314.661 136.153 305.486 136.153V108.754C302.281 124.387 288.32 136.153 271.584 136.153C254.847 136.153 240.887 124.387 237.682 108.754V136.153C228.507 136.153 219.708 132.545 213.22 126.122C206.732 119.699 203.088 110.988 203.088 101.905C203.088 92.822 206.732 84.1108 213.22 77.688Z" fill="#D9D9D9"/>
<path d="M213.22 77.688C219.708 71.2653 228.507 67.657 237.682 67.657V95.056C240.887 79.4233 254.847 67.657 271.584 67.657C288.32 67.657 302.281 79.4233 305.486 95.056V67.657C314.661 67.657 323.46 71.2653 329.947 77.688C336.435 84.1108 340.08 92.822 340.08 101.905C340.08 110.988 336.435 119.699 329.947 126.122C323.46 132.545 314.661 136.153 305.486 136.153V108.754C302.281 124.387 288.32 136.153 271.584 136.153C254.847 136.153 240.887 124.387 237.682 108.754V136.153C228.507 136.153 219.708 132.545 213.22 126.122C206.732 119.699 203.088 110.988 203.088 101.905C203.088 92.822 206.732 84.1108 213.22 77.688Z" fill="url(#paint6_linear_231_40)"/>
<path d="M407.183 101.905C407.183 120.82 391.85 136.153 372.935 136.153C354.021 136.153 338.687 120.82 338.687 101.905C338.687 82.9904 354.021 67.657 372.935 67.657C391.85 67.657 407.183 82.9904 407.183 101.905Z" fill="#D9D9D9"/>
<path d="M407.183 101.905C407.183 120.82 391.85 136.153 372.935 136.153C354.021 136.153 338.687 120.82 338.687 101.905C338.687 82.9904 354.021 67.657 372.935 67.657C391.85 67.657 407.183 82.9904 407.183 101.905Z" fill="url(#paint7_linear_231_40)"/>
<defs>
<linearGradient id="paint0_linear_231_40" x1="-107.709" y1="101.905" x2="410.01" y2="101.905" gradientUnits="userSpaceOnUse">
<stop stop-color="#9DD9EE"/>
<stop offset="1" stop-color="#03A689"/>
</linearGradient>
<linearGradient id="paint1_linear_231_40" x1="-107.709" y1="101.905" x2="410.01" y2="101.905" gradientUnits="userSpaceOnUse">
<stop stop-color="#9DD9EE"/>
<stop offset="1" stop-color="#03A689"/>
</linearGradient>
<linearGradient id="paint2_linear_231_40" x1="-107.709" y1="101.905" x2="410.01" y2="101.905" gradientUnits="userSpaceOnUse">
<stop stop-color="#9DD9EE"/>
<stop offset="1" stop-color="#03A689"/>
</linearGradient>
<linearGradient id="paint3_linear_231_40" x1="-107.709" y1="101.905" x2="410.01" y2="101.905" gradientUnits="userSpaceOnUse">
<stop stop-color="#9DD9EE"/>
<stop offset="1" stop-color="#03A689"/>
</linearGradient>
<linearGradient id="paint4_linear_231_40" x1="-107.709" y1="101.905" x2="410.01" y2="101.905" gradientUnits="userSpaceOnUse">
<stop stop-color="#9DD9EE"/>
<stop offset="1" stop-color="#03A689"/>
</linearGradient>
<linearGradient id="paint5_linear_231_40" x1="-107.709" y1="101.905" x2="410.01" y2="101.905" gradientUnits="userSpaceOnUse">
<stop stop-color="#9DD9EE"/>
<stop offset="1" stop-color="#03A689"/>
</linearGradient>
<linearGradient id="paint6_linear_231_40" x1="-107.709" y1="101.905" x2="410.01" y2="101.905" gradientUnits="userSpaceOnUse">
<stop stop-color="#9DD9EE"/>
<stop offset="1" stop-color="#03A689"/>
</linearGradient>
<linearGradient id="paint7_linear_231_40" x1="-107.709" y1="101.905" x2="410.01" y2="101.905" gradientUnits="userSpaceOnUse">
<stop stop-color="#9DD9EE"/>
<stop offset="1" stop-color="#03A689"/>
</linearGradient>
</defs>
</svg>
