<svg width="428" height="172" viewBox="0 0 428 172" fill="none" xmlns="http://www.w3.org/2000/svg">
<path d="M25.7136 25.3443C41.9326 9.25744 63.9303 0.219971 86.8675 0.219971V68.8455C94.88 29.6906 129.781 0.219971 171.622 0.219971C213.464 0.219971 248.365 29.6906 256.377 68.8455V0.219971C279.315 0.219971 301.312 9.25744 317.531 25.3443C329.632 37.3464 337.776 52.5388 341.132 68.9283V0.219971C364.07 0.219971 386.067 9.25744 402.286 25.3443C418.505 41.4312 427.617 63.2497 427.617 86C427.617 108.75 418.505 130.569 402.286 146.656C386.067 162.742 364.07 171.78 341.132 171.78V103.072C337.777 119.461 329.632 134.654 317.531 146.656C301.312 162.742 279.315 171.78 256.377 171.78V103.154C248.365 142.309 213.464 171.78 171.622 171.78C129.781 171.78 94.88 142.309 86.8675 103.154V171.78C63.9303 171.78 41.9326 162.742 25.7136 146.656C9.49456 130.569 0.382812 108.75 0.382812 86C0.382812 63.2497 9.49456 41.4312 25.7136 25.3443Z" fill="url(#paint0_linear_170_2564)"/>
<defs>
<linearGradient id="paint0_linear_170_2564" x1="0.382812" y1="86" x2="427.617" y2="85.9999" gradientUnits="userSpaceOnUse">
<stop stop-color="#9DD9EE"/>
<stop offset="1" stop-color="#03A689"/>
</linearGradient>
</defs>
</svg>
