<svg width="804" height="62" viewBox="0 0 804 62" fill="none" xmlns="http://www.w3.org/2000/svg">
<path d="M9.20536 9.45691C14.9804 3.73977 22.8129 0.527832 30.98 0.527832V24.9171C33.833 11.0016 46.26 0.527832 61.1581 0.527832C76.0561 0.527832 88.4831 11.0016 91.3361 24.9171V0.527832C99.5032 0.527832 107.336 3.73977 113.111 9.45691C118.886 15.1742 122.13 22.9285 122.13 31.0138C122.13 39.0992 118.886 46.8535 113.111 52.5708C107.336 58.2879 99.5032 61.4999 91.3361 61.4999V37.1106C88.4831 51.026 76.0561 61.4999 61.1581 61.4999C46.26 61.4999 33.833 51.026 30.98 37.1104V61.4999C22.8129 61.4999 14.9804 58.2879 9.20536 52.5708C3.43037 46.8535 0.186035 39.0992 0.186035 31.0138C0.186035 22.9285 3.43037 15.1742 9.20536 9.45691Z" fill="url(#paint0_linear_170_2584)"/>
<path d="M149.845 60.8664V4.80376H163.248V49.0679H192.123V60.8664H149.845Z" fill="#1E1F23"/>
<path fill-rule="evenodd" clip-rule="evenodd" d="M207.129 58.8867C210.439 60.6289 214.355 61.4999 218.878 61.4999C222.022 61.4999 225 61.0247 227.813 60.0745C230.626 59.0716 233.053 57.5406 235.094 55.4818C237.135 53.3702 238.514 50.6515 239.231 47.3259H226.324C226.103 48.0122 225.634 48.6455 224.917 49.2262C224.2 49.7541 223.29 50.1765 222.187 50.4932C221.139 50.7572 219.953 50.8892 218.629 50.8892C216.754 50.8892 215.21 50.5724 213.996 49.9389C212.783 49.3054 211.845 48.4344 211.183 47.3259C210.521 46.2173 210.108 45.0031 209.942 43.6833H238.9C239.12 42.8915 239.258 42.126 239.314 41.387L239.479 39.0115C239.479 36.0024 239.01 33.231 238.073 30.6972C237.19 28.1632 235.839 25.9725 234.018 24.1248C232.253 22.2771 230.102 20.8518 227.565 19.8489C225.083 18.8459 222.215 18.3444 218.96 18.3444C214.493 18.3444 210.604 19.2681 207.295 21.1158C204.04 22.9634 201.503 25.5237 199.683 28.7967C197.863 32.0697 196.953 35.8705 196.953 40.1992C196.953 44.5281 197.835 48.3025 199.6 51.5227C201.365 54.69 203.875 57.1448 207.129 58.8867ZM226.986 35.2106H210.19C210.245 34.1549 210.577 33.099 211.183 32.0433C211.79 30.9875 212.728 30.1165 213.996 29.4302C215.265 28.7439 216.837 28.4007 218.712 28.4007C220.643 28.4007 222.215 28.7439 223.428 29.4302C224.642 30.0637 225.524 30.9083 226.076 31.964C226.682 33.0199 226.986 34.102 226.986 35.2106Z" fill="#1E1F23"/>
<path d="M246.197 60.8664V19.1362H259.352V60.8664H246.197Z" fill="#1E1F23"/>
<path d="M252.816 15.6521C250.389 15.6521 248.431 14.9658 246.941 13.5933C245.507 12.2208 244.79 10.4258 244.79 8.20871C244.79 5.9388 245.563 4.09111 247.107 2.6658C248.651 1.24049 250.582 0.527832 252.898 0.527832C255.105 0.527832 256.98 1.2141 258.525 2.58663C260.069 3.95917 260.841 5.80686 260.841 8.12954C260.841 10.3994 260.097 12.2208 258.607 13.5933C257.118 14.9658 255.188 15.6521 252.816 15.6521Z" fill="#1E1F23"/>
<path d="M267.77 4.80376V60.8664H280.925V4.80376H267.77Z" fill="#1E1F23"/>
<path fill-rule="evenodd" clip-rule="evenodd" d="M310.192 61.4999C305.835 61.4999 301.946 60.6553 298.526 58.9659C295.162 57.2767 292.514 54.8483 290.584 51.681C288.653 48.4608 287.688 44.6072 287.688 40.12C287.688 35.5273 288.653 31.6209 290.584 28.4007C292.569 25.1279 295.244 22.6467 298.609 20.9575C301.974 19.2154 305.779 18.3444 310.027 18.3444C314.329 18.3444 318.135 19.2418 321.444 21.0367C324.754 22.7786 327.374 25.2862 329.304 28.559C331.235 31.7793 332.2 35.6858 332.2 40.2784C332.2 44.7656 331.262 48.5927 329.387 51.7602C327.567 54.9276 325.002 57.3559 321.692 59.0451C318.383 60.6816 314.55 61.4999 310.192 61.4999ZM309.944 49.8597C312.26 49.8597 314.108 49.3847 315.487 48.4344C316.866 47.4842 317.831 46.27 318.383 44.792C318.99 43.3139 319.293 41.783 319.293 40.1992C319.293 38.6156 318.99 37.0319 318.383 35.4481C317.831 33.8645 316.866 32.5711 315.487 31.5682C314.163 30.5123 312.316 29.9845 309.944 29.9845C307.627 29.9845 305.779 30.5123 304.4 31.5682C303.022 32.5711 302.029 33.8645 301.422 35.4481C300.815 36.9791 300.512 38.5628 300.512 40.1992C300.512 41.783 300.815 43.3403 301.422 44.8711C302.084 46.3492 303.077 47.5634 304.4 48.5136C305.779 49.4111 307.627 49.8597 309.944 49.8597Z" fill="#1E1F23"/>
<path d="M317.142 14.8603C315.487 14.8603 314.025 14.5962 312.757 14.0684C311.488 13.4877 310.357 12.8542 309.365 12.168C308.427 11.4817 307.544 10.8746 306.717 10.3467C305.945 9.76596 305.2 9.47569 304.483 9.47569C303.766 9.47569 303.215 9.79235 302.828 10.4258C302.442 11.0066 302.222 11.6928 302.167 12.4846C302.111 13.2765 302.167 13.9363 302.332 14.4643H293.562C293.341 12.1416 293.507 9.92446 294.058 7.81288C294.61 5.70131 295.686 3.98555 297.285 2.6658C298.94 1.29326 301.201 0.606997 304.07 0.606997C305.559 0.606997 306.827 0.87105 307.875 1.39882C308.923 1.87398 309.861 2.45469 310.688 3.14096C311.194 3.50363 311.672 3.84905 312.123 4.17721C312.46 4.42215 312.781 4.65727 313.088 4.88293C313.86 5.41086 314.632 5.67475 315.404 5.67475C316.177 5.67475 316.728 5.41086 317.059 4.88293C317.39 4.35516 317.583 3.74806 317.638 3.06179C317.693 2.32275 317.666 1.66287 317.556 1.08216H326.243C326.464 3.29929 326.353 5.49003 325.912 7.65438C325.471 9.76596 324.561 11.5081 323.182 12.8806C321.803 14.2004 319.789 14.8603 317.142 14.8603Z" fill="#1E1F23"/>
<path fill-rule="evenodd" clip-rule="evenodd" d="M347.474 58.8867C350.783 60.6289 354.699 61.4999 359.222 61.4999C362.366 61.4999 365.345 61.0247 368.158 60.0745C370.971 59.0716 373.398 57.5406 375.439 55.4818C377.479 53.3702 378.858 50.6515 379.575 47.3259H366.669C366.448 48.0122 365.979 48.6455 365.262 49.2262C364.545 49.7541 363.635 50.1765 362.532 50.4932C361.484 50.7572 360.298 50.8892 358.974 50.8892C357.099 50.8892 355.554 50.5724 354.341 49.9389C353.127 49.3054 352.19 48.4344 351.528 47.3259C350.866 46.2173 350.452 45.0031 350.287 43.6833H379.244C379.465 42.8915 379.603 42.126 379.658 41.387L379.824 39.0115C379.824 36.0024 379.355 33.231 378.417 30.6972C377.535 28.1632 376.183 25.9725 374.363 24.1248C372.598 22.2771 370.447 20.8518 367.91 19.8489C365.427 18.8459 362.559 18.3444 359.305 18.3444C354.837 18.3444 350.949 19.2681 347.639 21.1158C344.385 22.9634 341.848 25.5237 340.027 28.7967C338.207 32.0697 337.297 35.8705 337.297 40.1992C337.297 44.5281 338.18 48.3025 339.945 51.5227C341.71 54.69 344.219 57.1448 347.474 58.8867ZM367.33 35.2106H350.535C350.59 34.1549 350.921 33.099 351.528 32.0433C352.135 30.9875 353.072 30.1165 354.341 29.4302C355.609 28.7439 357.181 28.4007 359.057 28.4007C360.987 28.4007 362.559 28.7439 363.773 29.4302C364.986 30.0637 365.869 30.9083 366.42 31.964C367.027 33.0199 367.33 34.102 367.33 35.2106Z" fill="#1E1F23"/>
<path d="M403.999 61.4999C401.903 61.4999 399.752 61.2624 397.545 60.7872C395.394 60.312 393.381 59.5466 391.506 58.4909C389.63 57.435 388.058 55.9833 386.79 54.1356C385.521 52.2881 384.666 49.9653 384.225 47.1674H397.463C397.794 48.0122 398.29 48.7512 398.952 49.3847C399.669 49.9653 400.524 50.414 401.517 50.7307C402.565 50.9947 403.613 51.1267 404.661 51.1267C405.378 51.1267 406.067 51.0739 406.729 50.9684C407.391 50.8628 407.97 50.6779 408.466 50.414C409.018 50.1501 409.432 49.8333 409.708 49.4639C409.983 49.0415 410.121 48.5399 410.121 47.9592C410.121 47.1146 409.818 46.5075 409.211 46.1381C408.66 45.7157 407.86 45.3991 406.812 45.1878C405.819 44.9239 404.661 44.66 403.337 44.396C401.186 43.9737 398.869 43.4458 396.387 42.8123C393.96 42.1788 391.892 41.3342 390.182 40.2784C389.354 39.7506 388.637 39.1699 388.031 38.5364C387.424 37.8501 386.927 37.1375 386.541 36.3984C386.21 35.6066 385.935 34.7882 385.714 33.9436C385.549 33.0463 385.466 32.0961 385.466 31.093C385.466 28.7703 385.99 26.7907 387.038 25.1543C388.141 23.5177 389.547 22.1979 391.257 21.195C393.022 20.1919 394.98 19.4792 397.132 19.057C399.283 18.5819 401.434 18.3444 403.585 18.3444C406.619 18.3444 409.432 18.8194 412.024 19.7697C414.617 20.6671 416.768 22.1451 418.478 24.2039C420.243 26.21 421.346 28.8495 421.787 32.1225H409.128C408.963 31.0666 408.329 30.222 407.225 29.5885C406.122 28.955 404.743 28.6384 403.089 28.6384C402.482 28.6384 401.875 28.7175 401.268 28.8759C400.662 28.9814 400.11 29.1398 399.614 29.351C399.172 29.5094 398.786 29.7732 398.455 30.1429C398.18 30.5123 398.042 30.9611 398.042 31.489C398.042 31.8584 398.152 32.228 398.373 32.5975C398.648 32.9671 399.035 33.3101 399.531 33.627C400.083 33.8909 400.772 34.1549 401.599 34.4188C403.475 34.7882 405.295 35.1578 407.06 35.5274C408.825 35.8441 410.507 36.1608 412.107 36.4776C413.872 36.847 415.582 37.4541 417.237 38.2989C418.891 39.0907 420.243 40.2256 421.291 41.7037C422.394 43.1819 422.945 45.1879 422.945 47.7217C422.945 50.3613 422.366 52.5784 421.208 54.3733C420.105 56.168 418.616 57.567 416.74 58.5701C414.865 59.573 412.824 60.312 410.618 60.7872C408.411 61.2624 406.205 61.4999 403.999 61.4999Z" fill="#1E1F23"/>
<path fill-rule="evenodd" clip-rule="evenodd" d="M437.066 58.4909C439.879 60.3912 443.52 61.3415 447.987 61.3415C449.973 61.3415 451.931 61.1039 453.862 60.6289C455.792 60.1009 457.585 59.2827 459.239 58.1741C460.894 57.0656 462.273 55.5875 463.376 53.7398L463.625 60.8664H469.25V4.88293H463.376V25.3126C462.218 23.676 460.811 22.3828 459.157 21.4325C457.502 20.4823 455.765 19.7961 453.944 19.3737C452.124 18.8987 450.304 18.661 448.484 18.661C444.126 18.661 440.486 19.585 437.562 21.4325C434.694 23.2802 432.516 25.8405 431.026 29.1134C429.592 32.3336 428.875 36.0024 428.875 40.12C428.875 44.0793 429.537 47.669 430.861 50.8892C432.185 54.0565 434.253 56.5904 437.066 58.4909ZM456.757 54.215C454.606 55.6931 451.931 56.4321 448.732 56.4321C446.084 56.4321 443.851 56.0097 442.03 55.1651C440.265 54.2677 438.831 53.0535 437.728 51.5227C436.68 49.9916 435.908 48.2497 435.411 46.2964C434.97 44.3432 434.75 42.2844 434.75 40.12C434.75 37.1111 435.218 34.366 436.156 31.8848C437.094 29.351 438.583 27.345 440.624 25.8669C442.72 24.3359 445.45 23.5705 448.815 23.5705C452.124 23.5705 454.854 24.3095 457.006 25.7876C459.157 27.2129 460.756 29.1398 461.804 31.5682C462.907 33.9964 463.459 36.7415 463.459 39.8034C463.459 42.8123 462.88 45.5838 461.721 48.1177C460.618 50.6515 458.964 52.6839 456.757 54.215Z" fill="#1E1F23"/>
<path fill-rule="evenodd" clip-rule="evenodd" d="M499.734 61.3415C495.156 61.3415 491.323 60.4441 488.234 58.6492C485.145 56.8015 482.828 54.2677 481.284 51.0475C479.795 47.8273 479.05 44.1585 479.05 40.0409C479.05 35.8705 479.822 32.2017 481.367 29.0342C482.911 25.8141 485.228 23.2802 488.317 21.4325C491.405 19.585 495.239 18.661 499.817 18.661C504.395 18.661 508.201 19.585 511.235 21.4325C514.323 23.2802 516.612 25.8141 518.102 29.0342C519.646 32.2017 520.418 35.8705 520.418 40.0409C520.418 44.1585 519.646 47.8273 518.102 51.0475C516.557 54.2677 514.241 56.8015 511.152 58.6492C508.118 60.4441 504.312 61.3415 499.734 61.3415ZM499.734 56.4321C503.154 56.4321 505.967 55.7194 508.173 54.2941C510.38 52.816 512.007 50.8364 513.055 48.3552C514.103 45.874 514.627 43.1026 514.627 40.0409C514.627 36.9791 514.103 34.2077 513.055 31.7265C512.007 29.2453 510.38 27.2658 508.173 25.7876C505.967 24.3095 503.154 23.5705 499.734 23.5705C496.315 23.5705 493.501 24.3095 491.295 25.7876C489.089 27.2658 487.462 29.2453 486.414 31.7265C485.421 34.2077 484.924 36.9791 484.924 40.0409C484.924 43.1026 485.421 45.874 486.414 48.3552C487.462 50.8364 489.089 52.816 491.295 54.2941C493.501 55.7194 496.315 56.4321 499.734 56.4321Z" fill="#1E1F23"/>
<path fill-rule="evenodd" clip-rule="evenodd" d="M530.236 4.80376V60.8664H553.733C557.097 60.8664 560.269 60.5761 563.247 59.9954C566.226 59.4147 568.818 58.4381 571.025 57.0656C573.286 55.6931 575.051 53.8981 576.32 51.681C577.643 49.4639 578.305 46.7188 578.305 43.4458C578.305 39.9617 577.505 37.1375 575.906 34.9731C574.362 32.8088 572.293 31.2513 569.701 30.3012C571.631 29.2453 573.121 27.7408 574.168 25.7876C575.216 23.8345 575.74 21.7757 575.74 19.6114C575.74 16.7606 575.272 14.4115 574.334 12.5638C573.396 10.6635 572.1 9.15886 570.445 8.05038C568.846 6.88895 566.943 6.07074 564.736 5.59558C562.585 5.06782 560.214 4.80376 557.621 4.80376H530.236ZM555.718 49.0679H543.639V37.6654H556.711C557.98 37.6654 559.11 37.771 560.103 37.9821C561.096 38.1404 561.951 38.4572 562.668 38.9322C563.385 39.3546 563.909 39.9089 564.24 40.5952C564.626 41.2815 564.819 42.1524 564.819 43.2083C564.819 44.2112 564.599 45.1086 564.157 45.9006C563.771 46.6396 563.165 47.2467 562.337 47.7217C561.565 48.1441 560.6 48.4872 559.441 48.7512C558.338 48.9623 557.097 49.0679 555.718 49.0679ZM554.312 27.1337H543.639V16.6814H554.891C556.38 16.6814 557.676 16.8135 558.78 17.0774C559.938 17.2885 560.82 17.7373 561.427 18.4235C562.089 19.057 562.42 20.0072 562.42 21.2742C562.42 22.2243 562.227 23.0691 561.841 23.8081C561.51 24.4944 561.013 25.1013 560.352 25.6293C559.69 26.1044 558.835 26.4739 557.787 26.7379C556.794 27.0018 555.636 27.1337 554.312 27.1337Z" fill="#1E1F23"/>
<path d="M585.221 60.8664V19.1362H596.805L597.715 23.5705C598.818 22.0396 600.031 20.9046 601.355 20.1655C602.734 19.4265 604.113 18.9515 605.492 18.7402C606.926 18.4763 608.305 18.3444 609.629 18.3444L609.83 18.3449L609.966 18.3459C610.101 18.3471 610.233 18.3491 610.363 18.3518C610.43 18.3532 610.496 18.3547 610.561 18.3566C610.76 18.362 610.953 18.3691 611.141 18.378C611.391 18.3899 611.632 18.4051 611.863 18.4235C612.58 18.4235 613.049 18.4499 613.269 18.5027V30.5387H610.539C608.222 30.5387 606.126 30.8819 604.251 31.5682C602.431 32.2544 600.997 33.3893 599.949 34.9731C598.901 36.5568 598.377 38.7739 598.377 41.6245V60.8664H585.221Z" fill="#1E1F23"/>
<path fill-rule="evenodd" clip-rule="evenodd" d="M626.293 60.708C628.113 61.236 630.044 61.4999 632.084 61.4999C632.802 61.4999 633.932 61.3943 635.477 61.1832C637.021 61.0247 638.676 60.5233 640.441 59.6785C642.206 58.8339 643.778 57.4086 645.157 55.4026L645.24 60.8664H657.236V38.4572C657.236 31.964 655.664 27.0018 652.52 23.5705C649.376 20.1391 644.605 18.4235 638.207 18.4235C635.78 18.4235 633.408 18.7138 631.092 19.2945C628.775 19.8225 626.679 20.6407 624.804 21.7493C622.984 22.8578 621.439 24.3095 620.17 26.1044C618.957 27.8464 618.157 29.9581 617.771 32.4392H630.926C631.147 31.7001 631.561 31.093 632.167 30.6178C632.829 30.0901 633.629 29.6941 634.567 29.4302C635.559 29.1134 636.607 28.955 637.711 28.955C639.255 28.955 640.551 29.2453 641.599 29.826C642.647 30.4067 643.419 31.1986 643.916 32.2017C644.467 33.1518 644.743 34.2868 644.743 35.6066H640.606C637.518 35.6066 634.539 35.7385 631.671 36.0024C628.803 36.2665 626.238 36.847 623.976 37.7446C621.77 38.5892 620.005 39.9089 618.681 41.7037C617.413 43.4458 616.778 45.8213 616.778 48.8304C616.778 50.942 617.192 52.7895 618.019 54.3733C618.847 55.9569 619.977 57.2767 621.412 58.3324C622.846 59.3883 624.473 60.1801 626.293 60.708ZM640.027 50.7307C638.593 51.417 637.049 51.7602 635.394 51.7602C634.346 51.7602 633.381 51.6018 632.498 51.285C631.671 50.9684 631.009 50.5196 630.513 49.9389C630.016 49.3054 629.768 48.5399 629.768 47.6426C629.768 46.798 629.961 46.1117 630.347 45.5838C630.733 45.0558 631.257 44.66 631.919 44.396C632.581 44.0793 633.326 43.8682 634.153 43.7625C635.035 43.6569 635.918 43.6041 636.8 43.6041H644.909V44.2376C644.909 45.5574 644.44 46.798 643.502 47.9592C642.62 49.0679 641.461 49.9916 640.027 50.7307Z" fill="#1E1F23"/>
<path d="M683.072 61.4999C680.976 61.4999 678.825 61.2624 676.619 60.7872C674.467 60.312 672.454 59.5466 670.579 58.4909C668.704 57.435 667.131 55.9833 665.863 54.1356C664.594 52.2881 663.739 49.9653 663.298 47.1674H676.536C676.867 48.0122 677.363 48.7512 678.025 49.3847C678.742 49.9653 679.597 50.414 680.59 50.7307C681.638 50.9947 682.686 51.1267 683.734 51.1267C684.451 51.1267 685.14 51.0739 685.802 50.9684C686.464 50.8628 687.043 50.6779 687.54 50.414C688.091 50.1501 688.505 49.8333 688.781 49.4639C689.057 49.0415 689.194 48.5399 689.194 47.9592C689.194 47.1146 688.891 46.5075 688.284 46.1381C687.733 45.7157 686.933 45.3991 685.885 45.1878C684.892 44.9239 683.734 44.66 682.41 44.396C680.259 43.9737 677.942 43.4458 675.46 42.8123C673.033 42.1788 670.965 41.3342 669.255 40.2784C668.428 39.7506 667.711 39.1699 667.104 38.5364C666.497 37.8501 666.001 37.1375 665.615 36.3984C665.284 35.6066 665.008 34.7882 664.787 33.9436C664.622 33.0463 664.539 32.0961 664.539 31.093C664.539 28.7703 665.063 26.7907 666.111 25.1543C667.214 23.5177 668.621 22.1979 670.331 21.195C672.096 20.1919 674.054 19.4792 676.205 19.057C678.356 18.5819 680.507 18.3444 682.658 18.3444C685.692 18.3444 688.505 18.8194 691.097 19.7697C693.69 20.6671 695.841 22.1451 697.551 24.2039C699.316 26.21 700.419 28.8495 700.86 32.1225H688.202C688.036 31.0666 687.402 30.222 686.299 29.5885C685.196 28.955 683.817 28.6384 682.162 28.6384C681.555 28.6384 680.948 28.7175 680.342 28.8759C679.735 28.9814 679.183 29.1398 678.687 29.351C678.246 29.5094 677.86 29.7732 677.529 30.1429C677.253 30.5123 677.115 30.9611 677.115 31.489C677.115 31.8584 677.225 32.228 677.446 32.5975C677.722 32.9671 678.108 33.3101 678.604 33.627C679.156 33.8909 679.845 34.1549 680.673 34.4188C682.548 34.7882 684.368 35.1578 686.133 35.5274C687.898 35.8441 689.581 36.1608 691.18 36.4776C692.945 36.847 694.655 37.4541 696.31 38.2989C697.965 39.0907 699.316 40.2256 700.364 41.7037C701.467 43.1819 702.019 45.1879 702.019 47.7217C702.019 50.3613 701.439 52.5784 700.281 54.3733C699.178 56.168 697.689 57.567 695.813 58.5701C693.938 59.573 691.897 60.312 689.691 60.7872C687.485 61.2624 685.278 61.4999 683.072 61.4999Z" fill="#1E1F23"/>
<path d="M708.114 19.1362V60.8664H721.269V19.1362H708.114Z" fill="#1E1F23"/>
<path d="M708.859 13.5933C710.348 14.9658 712.306 15.6521 714.733 15.6521C717.105 15.6521 719.035 14.9658 720.524 13.5933C722.014 12.2208 722.758 10.3994 722.758 8.12954C722.758 5.80686 721.986 3.95917 720.442 2.58663C718.897 1.2141 717.022 0.527832 714.816 0.527832C712.499 0.527832 710.568 1.24049 709.024 2.6658C707.48 4.09111 706.707 5.9388 706.707 8.20871C706.707 10.4258 707.424 12.2208 708.859 13.5933Z" fill="#1E1F23"/>
<path d="M729.687 60.8664V4.80376H742.842V60.8664H729.687Z" fill="#1E1F23"/>
<path d="M794.885 9.45691C789.167 3.73977 781.413 0.527832 773.328 0.527832V61.4999C781.413 61.4999 789.167 58.2879 794.885 52.5708C800.602 46.8535 803.814 39.0992 803.814 31.0138C803.814 22.9285 800.602 15.1742 794.885 9.45691Z" fill="#03A689"/>
<defs>
<linearGradient id="paint0_linear_170_2584" x1="-32.224" y1="31.0138" x2="122.978" y2="31.0138" gradientUnits="userSpaceOnUse">
<stop stop-color="#9DD9EE"/>
<stop offset="1" stop-color="#03A689"/>
</linearGradient>
</defs>
</svg>
