<svg width="804" height="62" viewBox="0 0 804 62" fill="none" xmlns="http://www.w3.org/2000/svg">
<path d="M9.2056 9.443C14.9806 3.72585 22.8131 0.513916 30.9802 0.513916V24.9032C33.8332 10.9877 46.2602 0.513916 61.1583 0.513916C76.0563 0.513916 88.4834 10.9877 91.3364 24.9032V0.513916C99.5034 0.513916 107.336 3.72585 113.111 9.443C118.886 15.1603 122.13 22.9146 122.13 30.9999C122.13 39.0853 118.886 46.8395 113.111 52.5569C107.336 58.274 99.5034 61.4859 91.3364 61.4859V37.0967C88.4834 51.0121 76.0563 61.4859 61.1583 61.4859C46.2602 61.4859 33.8332 51.0121 30.9802 37.0965V61.4859C22.8131 61.4859 14.9806 58.274 9.2056 52.5569C3.43061 46.8395 0.186279 39.0853 0.186279 30.9999C0.186279 22.9146 3.43061 15.1603 9.2056 9.443Z" fill="url(#paint0_linear_170_2576)"/>
<path d="M149.845 60.8524V4.78985H163.248V49.054H192.123V60.8524H149.845Z" fill="white"/>
<path fill-rule="evenodd" clip-rule="evenodd" d="M207.129 58.8728C210.439 60.615 214.355 61.4859 218.878 61.4859C222.022 61.4859 225 61.0108 227.813 60.0606C230.626 59.0577 233.053 57.5267 235.094 55.4679C237.135 53.3563 238.514 50.6376 239.231 47.312H226.324C226.104 47.9983 225.635 48.6316 224.918 49.2123C224.201 49.7402 223.291 50.1626 222.187 50.4793C221.139 50.7433 219.954 50.8753 218.63 50.8753C216.754 50.8753 215.21 50.5584 213.997 49.925C212.783 49.2915 211.845 48.4205 211.183 47.312C210.522 46.2033 210.108 44.9891 209.942 43.6694H238.9C239.121 42.8776 239.259 42.1121 239.314 41.3731L239.479 38.9976C239.479 35.9885 239.01 33.2171 238.073 30.6833C237.19 28.1493 235.839 25.9586 234.019 24.1109C232.254 22.2632 230.102 20.8379 227.565 19.8349C225.083 18.832 222.215 18.3305 218.961 18.3305C214.493 18.3305 210.604 19.2542 207.295 21.1019C204.041 22.9494 201.503 25.5098 199.683 28.7828C197.863 32.0558 196.953 35.8566 196.953 40.1853C196.953 44.5142 197.835 48.2885 199.6 51.5088C201.365 54.676 203.875 57.1308 207.129 58.8728ZM226.986 35.1967H210.191C210.246 34.141 210.577 33.0851 211.183 32.0294C211.79 30.9735 212.728 30.1026 213.997 29.4163C215.265 28.73 216.837 28.3868 218.712 28.3868C220.643 28.3868 222.215 28.73 223.428 29.4163C224.642 30.0498 225.524 30.8944 226.076 31.9501C226.683 33.0059 226.986 34.088 226.986 35.1967Z" fill="white"/>
<path d="M246.197 60.8524V19.1223H259.352V60.8524H246.197Z" fill="white"/>
<path d="M252.816 15.6382C250.389 15.6382 248.431 14.9519 246.942 13.5794C245.508 12.2068 244.791 10.4119 244.791 8.19479C244.791 5.92489 245.563 4.07719 247.107 2.65188C248.652 1.22657 250.582 0.513916 252.899 0.513916C255.105 0.513916 256.98 1.20018 258.525 2.57272C260.069 3.94525 260.841 5.79294 260.841 8.11563C260.841 10.3855 260.097 12.2068 258.608 13.5794C257.118 14.9519 255.188 15.6382 252.816 15.6382Z" fill="white"/>
<path d="M267.77 4.78985V60.8524H280.925V4.78985H267.77Z" fill="white"/>
<path fill-rule="evenodd" clip-rule="evenodd" d="M310.192 61.4859C305.835 61.4859 301.946 60.6413 298.526 58.952C295.162 57.2628 292.514 54.8344 290.584 51.6671C288.653 48.4469 287.688 44.5933 287.688 40.1061C287.688 35.5134 288.653 31.607 290.584 28.3868C292.569 25.114 295.245 22.6328 298.609 20.9436C301.974 19.2014 305.78 18.3305 310.027 18.3305C314.329 18.3305 318.135 19.2278 321.444 21.0228C324.754 22.7647 327.374 25.2723 329.304 28.5451C331.235 31.7654 332.2 35.6718 332.2 40.2644C332.2 44.7516 331.262 48.5788 329.387 51.7463C327.567 54.9137 325.002 57.3419 321.693 59.0311C318.383 60.6677 314.55 61.4859 310.192 61.4859ZM309.944 49.8458C312.261 49.8458 314.108 49.3708 315.487 48.4205C316.866 47.4703 317.832 46.2561 318.383 44.778C318.99 43.2999 319.293 41.7691 319.293 40.1853C319.293 38.6016 318.99 37.018 318.383 35.4342C317.832 33.8505 316.866 32.5572 315.487 31.5543C314.164 30.4984 312.316 29.9706 309.944 29.9706C307.627 29.9706 305.78 30.4984 304.401 31.5543C303.022 32.5572 302.029 33.8505 301.422 35.4342C300.815 36.9652 300.512 38.5489 300.512 40.1853C300.512 41.7691 300.815 43.3263 301.422 44.8572C302.084 46.3353 303.077 47.5495 304.401 48.4996C305.78 49.3972 307.627 49.8458 309.944 49.8458Z" fill="white"/>
<path d="M317.142 14.8464C315.487 14.8464 314.026 14.5823 312.757 14.0545C311.488 13.4738 310.358 12.8403 309.365 12.1541C308.427 11.4678 307.545 10.8607 306.717 10.3328C305.945 9.75204 305.2 9.46177 304.483 9.46177C303.766 9.46177 303.215 9.77843 302.829 10.4119C302.443 10.9926 302.222 11.6789 302.167 12.4707C302.112 13.2625 302.167 13.9224 302.332 14.4504H293.562C293.342 12.1277 293.507 9.91054 294.059 7.79897C294.61 5.68739 295.686 3.97164 297.285 2.65188C298.94 1.27935 301.202 0.593081 304.07 0.593081C305.559 0.593081 306.828 0.857134 307.876 1.3849C308.924 1.86006 309.861 2.44077 310.689 3.12704C311.194 3.48971 311.672 3.83513 312.123 4.16329C312.46 4.40823 312.781 4.64336 313.088 4.86901C313.86 5.39695 314.632 5.66083 315.405 5.66083C316.177 5.66083 316.728 5.39695 317.059 4.86901C317.39 4.34124 317.583 3.73414 317.639 3.04788C317.694 2.30883 317.666 1.64895 317.556 1.06824H326.243C326.464 3.28537 326.353 5.47611 325.912 7.64047C325.471 9.75204 324.561 11.4942 323.182 12.8667C321.803 14.1865 319.79 14.8464 317.142 14.8464Z" fill="white"/>
<path fill-rule="evenodd" clip-rule="evenodd" d="M347.474 58.8728C350.783 60.615 354.7 61.4859 359.223 61.4859C362.367 61.4859 365.345 61.0108 368.158 60.0606C370.971 59.0577 373.398 57.5267 375.439 55.4679C377.48 53.3563 378.859 50.6376 379.576 47.312H366.669C366.448 47.9983 365.979 48.6316 365.262 49.2123C364.545 49.7402 363.635 50.1626 362.532 50.4793C361.484 50.7433 360.298 50.8753 358.974 50.8753C357.099 50.8753 355.555 50.5584 354.341 49.925C353.128 49.2915 352.19 48.4205 351.528 47.312C350.866 46.2033 350.452 44.9891 350.287 43.6694H379.245C379.465 42.8776 379.603 42.1121 379.658 41.3731L379.824 38.9976C379.824 35.9885 379.355 33.2171 378.417 30.6833C377.535 28.1493 376.183 25.9586 374.363 24.1109C372.598 22.2632 370.447 20.8379 367.91 19.8349C365.428 18.832 362.56 18.3305 359.305 18.3305C354.838 18.3305 350.949 19.2542 347.639 21.1019C344.385 22.9494 341.848 25.5098 340.028 28.7828C338.208 32.0558 337.297 35.8566 337.297 40.1853C337.297 44.5142 338.18 48.2885 339.945 51.5088C341.71 54.676 344.22 57.1308 347.474 58.8728ZM367.331 35.1967H350.535C350.59 34.141 350.921 33.0851 351.528 32.0294C352.135 30.9735 353.072 30.1026 354.341 29.4163C355.61 28.73 357.182 28.3868 359.057 28.3868C360.988 28.3868 362.56 28.73 363.773 29.4163C364.986 30.0498 365.869 30.8944 366.421 31.9501C367.027 33.0059 367.331 34.088 367.331 35.1967Z" fill="white"/>
<path d="M403.999 61.4859C401.903 61.4859 399.752 61.2484 397.546 60.7733C395.394 60.2981 393.381 59.5327 391.506 58.477C389.63 57.4211 388.058 55.9694 386.79 54.1217C385.521 52.2742 384.666 49.9513 384.225 47.1535H397.463C397.794 47.9983 398.29 48.7373 398.952 49.3708C399.669 49.9513 400.524 50.4001 401.517 50.7168C402.565 50.9808 403.613 51.1128 404.661 51.1128C405.378 51.1128 406.067 51.06 406.729 50.9544C407.391 50.8489 407.97 50.664 408.467 50.4001C409.018 50.1362 409.432 49.8194 409.708 49.45C409.984 49.0276 410.121 48.526 410.121 47.9453C410.121 47.1007 409.818 46.4936 409.211 46.1242C408.66 45.7018 407.86 45.3851 406.812 45.1739C405.819 44.91 404.661 44.6461 403.337 44.382C401.186 43.9598 398.869 43.4319 396.387 42.7984C393.96 42.1649 391.892 41.3203 390.182 40.2644C389.355 39.7367 388.638 39.156 388.031 38.5225C387.424 37.8362 386.928 37.1235 386.542 36.3845C386.211 35.5927 385.935 34.7743 385.714 33.9297C385.549 33.0323 385.466 32.0822 385.466 31.0791C385.466 28.7564 385.99 26.7768 387.038 25.1404C388.141 23.5038 389.548 22.184 391.258 21.1811C393.023 20.178 394.981 19.4653 397.132 19.0431C399.283 18.568 401.434 18.3305 403.585 18.3305C406.619 18.3305 409.432 18.8055 412.024 19.7558C414.617 20.6531 416.768 22.1312 418.478 24.19C420.243 26.1961 421.346 28.8356 421.787 32.1086H409.129C408.963 31.0527 408.329 30.2081 407.226 29.5746C406.123 28.9411 404.744 28.6245 403.089 28.6245C402.482 28.6245 401.875 28.7036 401.269 28.862C400.662 28.9675 400.11 29.1258 399.614 29.3371C399.173 29.4955 398.787 29.7593 398.456 30.1289C398.18 30.4984 398.042 30.9471 398.042 31.4751C398.042 31.8445 398.152 32.2141 398.373 32.5836C398.649 32.9532 399.035 33.2962 399.531 33.6131C400.083 33.8769 400.772 34.141 401.6 34.4049C403.475 34.7743 405.295 35.1439 407.06 35.5135C408.825 35.8302 410.508 36.1468 412.107 36.4637C413.872 36.8331 415.582 37.4402 417.237 38.285C418.891 39.0768 420.243 40.2117 421.291 41.6898C422.394 43.168 422.946 45.174 422.946 47.7078C422.946 50.3473 422.366 52.5645 421.208 54.3594C420.105 56.1541 418.616 57.5531 416.74 58.5561C414.865 59.5591 412.824 60.2981 410.618 60.7733C408.412 61.2484 406.205 61.4859 403.999 61.4859Z" fill="white"/>
<path fill-rule="evenodd" clip-rule="evenodd" d="M437.066 58.477C439.879 60.3773 443.52 61.3276 447.988 61.3276C449.973 61.3276 451.931 61.0899 453.862 60.6149C455.792 60.087 457.585 59.2688 459.24 58.1602C460.894 57.0517 462.273 55.5736 463.376 53.7259L463.625 60.8524H469.251V4.86901H463.376V25.2987C462.218 23.6621 460.812 22.3689 459.157 21.4186C457.502 20.4684 455.765 19.7822 453.945 19.3598C452.124 18.8848 450.304 18.6471 448.484 18.6471C444.127 18.6471 440.486 19.5711 437.563 21.4186C434.695 23.2663 432.516 25.8266 431.027 29.0995C429.593 32.3197 428.876 35.9885 428.876 40.1061C428.876 44.0654 429.537 47.655 430.861 50.8753C432.185 54.0426 434.253 56.5765 437.066 58.477ZM456.758 54.2011C454.606 55.6791 451.931 56.4182 448.732 56.4182C446.085 56.4182 443.851 55.9958 442.031 55.1512C440.265 54.2538 438.831 53.0396 437.728 51.5088C436.68 49.9777 435.908 48.2358 435.412 46.2825C434.97 44.3293 434.75 42.2705 434.75 40.1061C434.75 37.0972 435.219 34.3521 436.156 31.8709C437.094 29.3371 438.583 27.3311 440.624 25.853C442.72 24.322 445.45 23.5565 448.815 23.5565C452.124 23.5565 454.855 24.2956 457.006 25.7737C459.157 27.199 460.756 29.1258 461.804 31.5543C462.908 33.9825 463.459 36.7276 463.459 39.7894C463.459 42.7984 462.88 45.5699 461.722 48.1038C460.619 50.6376 458.964 52.67 456.758 54.2011Z" fill="white"/>
<path fill-rule="evenodd" clip-rule="evenodd" d="M499.735 61.3276C495.156 61.3276 491.323 60.4302 488.234 58.6353C485.145 56.7876 482.829 54.2538 481.284 51.0336C479.795 47.8134 479.05 44.1445 479.05 40.0269C479.05 35.8566 479.823 32.1877 481.367 29.0203C482.912 25.8002 485.228 23.2663 488.317 21.4186C491.406 19.5711 495.239 18.6471 499.817 18.6471C504.395 18.6471 508.201 19.5711 511.235 21.4186C514.324 23.2663 516.613 25.8002 518.102 29.0203C519.646 32.1877 520.419 35.8566 520.419 40.0269C520.419 44.1445 519.646 47.8134 518.102 51.0336C516.558 54.2538 514.241 56.7876 511.152 58.6353C508.118 60.4302 504.313 61.3276 499.735 61.3276ZM499.735 56.4182C503.154 56.4182 505.967 55.7055 508.174 54.2802C510.38 52.8021 512.007 50.8225 513.055 48.3413C514.103 45.8601 514.627 43.0887 514.627 40.0269C514.627 36.9652 514.103 34.1938 513.055 31.7126C512.007 29.2314 510.38 27.2519 508.174 25.7737C505.967 24.2956 503.154 23.5565 499.735 23.5565C496.315 23.5565 493.502 24.2956 491.296 25.7737C489.089 27.2519 487.462 29.2314 486.414 31.7126C485.421 34.1938 484.925 36.9652 484.925 40.0269C484.925 43.0887 485.421 45.8601 486.414 48.3413C487.462 50.8225 489.089 52.8021 491.296 54.2802C493.502 55.7055 496.315 56.4182 499.735 56.4182Z" fill="white"/>
<path fill-rule="evenodd" clip-rule="evenodd" d="M530.236 4.78985V60.8524H553.733C557.097 60.8524 560.269 60.5622 563.248 59.9815C566.226 59.4007 568.818 58.4242 571.025 57.0517C573.286 55.6791 575.051 53.8842 576.32 51.6671C577.644 49.45 578.306 46.7049 578.306 43.4319C578.306 39.9478 577.506 37.1235 575.906 34.9592C574.362 32.7948 572.293 31.2374 569.701 30.2873C571.631 29.2314 573.121 27.7269 574.169 25.7737C575.217 23.8206 575.741 21.7618 575.741 19.5974C575.741 16.7467 575.272 14.3976 574.334 12.5499C573.396 10.6496 572.1 9.14494 570.446 8.03646C568.846 6.87504 566.943 6.05683 564.737 5.58167C562.586 5.0539 560.214 4.78985 557.622 4.78985H530.236ZM555.719 49.054H543.639V37.6515H556.711C557.98 37.6515 559.111 37.757 560.104 37.9681C561.096 38.1265 561.951 38.4433 562.668 38.9183C563.385 39.3407 563.909 39.895 564.24 40.5813C564.627 41.2675 564.82 42.1385 564.82 43.1944C564.82 44.1973 564.599 45.0947 564.158 45.8867C563.771 46.6257 563.165 47.2328 562.337 47.7078C561.565 48.1302 560.6 48.4733 559.442 48.7373C558.339 48.9484 557.097 49.054 555.719 49.054ZM554.312 27.1198H543.639V16.6675H554.891C556.38 16.6675 557.677 16.7996 558.78 17.0635C559.938 17.2746 560.821 17.7234 561.427 18.4096C562.089 19.0431 562.42 19.9933 562.42 21.2602C562.42 22.2104 562.227 23.0552 561.841 23.7942C561.51 24.4805 561.014 25.0874 560.352 25.6153C559.69 26.0905 558.835 26.4599 557.787 26.724C556.794 26.9879 555.636 27.1198 554.312 27.1198Z" fill="white"/>
<path d="M585.222 60.8524V19.1223H596.805L597.715 23.5565C598.818 22.0257 600.032 20.8906 601.355 20.1516C602.734 19.4126 604.113 18.9376 605.492 18.7263C606.926 18.4624 608.305 18.3305 609.629 18.3305L609.831 18.331L609.966 18.332C610.101 18.3332 610.233 18.3352 610.363 18.3379C610.43 18.3393 610.496 18.3408 610.562 18.3426C610.76 18.3481 610.953 18.3552 611.141 18.3641C611.392 18.376 611.632 18.3912 611.863 18.4096C612.58 18.4096 613.049 18.436 613.269 18.4888V30.5248H610.539C608.222 30.5248 606.126 30.868 604.251 31.5543C602.431 32.2405 600.997 33.3754 599.949 34.9592C598.901 36.5428 598.377 38.76 598.377 41.6106V60.8524H585.222Z" fill="white"/>
<path fill-rule="evenodd" clip-rule="evenodd" d="M626.293 60.6941C628.113 61.2221 630.044 61.4859 632.085 61.4859C632.802 61.4859 633.933 61.3804 635.477 61.1693C637.021 61.0108 638.676 60.5094 640.441 59.6646C642.206 58.82 643.778 57.3947 645.157 55.3887L645.24 60.8524H657.237V38.4433C657.237 31.9501 655.665 26.9879 652.521 23.5565C649.377 20.1252 644.606 18.4096 638.207 18.4096C635.78 18.4096 633.409 18.6999 631.092 19.2806C628.775 19.8086 626.679 20.6268 624.804 21.7354C622.984 22.8439 621.439 24.2956 620.171 26.0905C618.957 27.8325 618.158 29.9442 617.771 32.4252H630.927C631.147 31.6862 631.561 31.0791 632.167 30.6039C632.829 30.0762 633.629 29.6802 634.567 29.4163C635.56 29.0995 636.608 28.9411 637.711 28.9411C639.255 28.9411 640.551 29.2314 641.599 29.8121C642.647 30.3928 643.42 31.1846 643.916 32.1877C644.468 33.1379 644.743 34.2729 644.743 35.5927H640.607C637.518 35.5927 634.539 35.7246 631.671 35.9885C628.803 36.2526 626.238 36.8331 623.977 37.7306C621.77 38.5752 620.005 39.895 618.681 41.6898C617.413 43.4319 616.778 45.8074 616.778 48.8165C616.778 50.928 617.192 52.7756 618.02 54.3594C618.847 55.943 619.978 57.2628 621.412 58.3185C622.846 59.3744 624.473 60.1662 626.293 60.6941ZM640.027 50.7168C638.593 51.403 637.049 51.7463 635.394 51.7463C634.346 51.7463 633.381 51.5879 632.498 51.2711C631.671 50.9544 631.009 50.5057 630.513 49.925C630.016 49.2915 629.768 48.526 629.768 47.6287C629.768 46.7841 629.961 46.0978 630.347 45.5699C630.733 45.0419 631.257 44.6461 631.919 44.382C632.581 44.0654 633.326 43.8543 634.153 43.7486C635.036 43.643 635.918 43.5902 636.801 43.5902H644.909V44.2237C644.909 45.5435 644.44 46.7841 643.502 47.9453C642.62 49.054 641.461 49.9777 640.027 50.7168Z" fill="white"/>
<path d="M683.072 61.4859C680.976 61.4859 678.825 61.2484 676.619 60.7733C674.468 60.2981 672.454 59.5327 670.579 58.477C668.704 57.4211 667.132 55.9694 665.863 54.1217C664.594 52.2742 663.74 49.9513 663.298 47.1535H676.536C676.867 47.9983 677.363 48.7373 678.025 49.3708C678.742 49.9513 679.597 50.4001 680.59 50.7168C681.638 50.9808 682.686 51.1128 683.734 51.1128C684.451 51.1128 685.141 51.06 685.803 50.9544C686.464 50.8489 687.044 50.664 687.54 50.4001C688.092 50.1362 688.505 49.8194 688.781 49.45C689.057 49.0276 689.195 48.526 689.195 47.9453C689.195 47.1007 688.891 46.4936 688.285 46.1242C687.733 45.7018 686.933 45.3851 685.885 45.1739C684.892 44.91 683.734 44.6461 682.41 44.382C680.259 43.9598 677.943 43.4319 675.461 42.7984C673.034 42.1649 670.965 41.3203 669.255 40.2644C668.428 39.7367 667.711 39.156 667.104 38.5225C666.497 37.8362 666.001 37.1235 665.615 36.3845C665.284 35.5927 665.008 34.7743 664.788 33.9297C664.622 33.0323 664.539 32.0822 664.539 31.0791C664.539 28.7564 665.063 26.7768 666.111 25.1404C667.214 23.5038 668.621 22.184 670.331 21.1811C672.096 20.178 674.054 19.4653 676.205 19.0431C678.356 18.568 680.507 18.3305 682.659 18.3305C685.692 18.3305 688.505 18.8055 691.098 19.7558C693.69 20.6531 695.841 22.1312 697.551 24.19C699.316 26.1961 700.419 28.8356 700.861 32.1086H688.202C688.036 31.0527 687.402 30.2081 686.299 29.5746C685.196 28.9411 683.817 28.6245 682.162 28.6245C681.555 28.6245 680.949 28.7036 680.342 28.862C679.735 28.9675 679.184 29.1258 678.687 29.3371C678.246 29.4955 677.86 29.7593 677.529 30.1289C677.253 30.4984 677.115 30.9471 677.115 31.4751C677.115 31.8445 677.225 32.2141 677.446 32.5836C677.722 32.9532 678.108 33.2962 678.604 33.6131C679.156 33.8769 679.846 34.141 680.673 34.4049C682.548 34.7743 684.368 35.1439 686.134 35.5135C687.899 35.8302 689.581 36.1468 691.18 36.4637C692.945 36.8331 694.655 37.4402 696.31 38.285C697.965 39.0768 699.316 40.2117 700.364 41.6898C701.467 43.168 702.019 45.174 702.019 47.7078C702.019 50.3473 701.44 52.5645 700.281 54.3594C699.178 56.1541 697.689 57.5531 695.814 58.5561C693.938 59.5591 691.897 60.2981 689.691 60.7733C687.485 61.2484 685.279 61.4859 683.072 61.4859Z" fill="white"/>
<path d="M708.114 19.1223V60.8524H721.269V19.1223H708.114Z" fill="white"/>
<path d="M708.859 13.5794C710.348 14.9519 712.306 15.6382 714.733 15.6382C717.105 15.6382 719.035 14.9519 720.525 13.5794C722.014 12.2068 722.758 10.3855 722.758 8.11563C722.758 5.79294 721.986 3.94525 720.442 2.57272C718.897 1.20018 717.022 0.513916 714.816 0.513916C712.499 0.513916 710.569 1.22657 709.024 2.65188C707.48 4.07719 706.708 5.92489 706.708 8.19479C706.708 10.4119 707.425 12.2068 708.859 13.5794Z" fill="white"/>
<path d="M729.687 60.8524V4.78985H742.842V60.8524H729.687Z" fill="white"/>
<path d="M794.885 9.443C789.168 3.72585 781.413 0.513916 773.328 0.513916V61.4859C781.413 61.4859 789.168 58.274 794.885 52.5569C800.602 46.8395 803.814 39.0853 803.814 30.9999C803.814 22.9146 800.602 15.1603 794.885 9.443Z" fill="#03A689"/>
<defs>
<linearGradient id="paint0_linear_170_2576" x1="-32.2237" y1="30.9999" x2="122.978" y2="30.9999" gradientUnits="userSpaceOnUse">
<stop stop-color="#9DD9EE"/>
<stop offset="1" stop-color="#03A689"/>
</linearGradient>
</defs>
</svg>
