<svg width="778" height="62" viewBox="0 0 778 62" fill="none" xmlns="http://www.w3.org/2000/svg">
<path d="M184.113 60.8383V4.77572H197.516V49.0398H226.391V60.8383H184.113Z" fill="#1E1F23"/>
<path fill-rule="evenodd" clip-rule="evenodd" d="M241.398 58.8587C244.707 60.6008 248.623 61.4718 253.146 61.4718C256.29 61.4718 259.269 60.9966 262.082 60.0465C264.895 59.0436 267.322 57.5125 269.362 55.4537C271.403 53.3422 272.782 50.6235 273.499 47.2979H260.592C260.372 47.9841 259.903 48.6175 259.186 49.1982C258.469 49.7261 257.559 50.1485 256.456 50.4651C255.408 50.7292 254.222 50.8611 252.898 50.8611C251.023 50.8611 249.478 50.5443 248.265 49.9108C247.051 49.2773 246.114 48.4063 245.452 47.2979C244.79 46.1892 244.376 44.975 244.211 43.6553H273.168C273.389 42.8634 273.527 42.098 273.582 41.359L273.747 38.9835C273.747 35.9744 273.279 33.2029 272.341 30.6691C271.458 28.1352 270.107 25.9444 268.287 24.0967C266.522 22.249 264.371 20.8237 261.833 19.8208C259.351 18.8179 256.483 18.3163 253.229 18.3163C248.761 18.3163 244.873 19.2401 241.563 21.0878C238.309 22.9353 235.772 25.4957 233.951 28.7687C232.131 32.0417 231.221 35.8424 231.221 40.1711C231.221 44.5 232.104 48.2744 233.869 51.4946C235.634 54.6619 238.143 57.1167 241.398 58.8587ZM261.254 35.1826H244.459C244.514 34.1269 244.845 33.071 245.452 32.0153C246.058 30.9594 246.996 30.0884 248.265 29.4022C249.533 28.7159 251.105 28.3727 252.981 28.3727C254.911 28.3727 256.483 28.7159 257.697 29.4022C258.91 30.0356 259.793 30.8802 260.344 31.9359C260.951 32.9918 261.254 34.0739 261.254 35.1826Z" fill="#1E1F23"/>
<path d="M280.465 60.8383V19.1082H293.62V60.8383H280.465Z" fill="#1E1F23"/>
<path d="M287.084 15.624C284.657 15.624 282.699 14.9378 281.21 13.5652C279.776 12.1927 279.059 10.3978 279.059 8.18066C279.059 5.91076 279.831 4.06306 281.375 2.63775C282.92 1.21244 284.85 0.499786 287.167 0.499786C289.373 0.499786 291.249 1.18605 292.793 2.55859C294.337 3.93112 295.11 5.77881 295.11 8.1015C295.11 10.3714 294.365 12.1927 292.876 13.5652C291.387 14.9378 289.456 15.624 287.084 15.624Z" fill="#1E1F23"/>
<path d="M302.038 4.77572V60.8383H315.193V4.77572H302.038Z" fill="#1E1F23"/>
<path fill-rule="evenodd" clip-rule="evenodd" d="M344.461 61.4718C340.103 61.4718 336.214 60.6272 332.795 58.9378C329.43 57.2486 326.783 54.8202 324.852 51.653C322.922 48.4327 321.956 44.5792 321.956 40.092C321.956 35.4992 322.922 31.5929 324.852 28.3727C326.838 25.0998 329.513 22.6187 332.877 20.9295C336.242 19.1873 340.048 18.3163 344.295 18.3163C348.597 18.3163 352.403 19.2137 355.713 21.0086C359.022 22.7506 361.642 25.2582 363.573 28.531C365.503 31.7512 366.468 35.6577 366.468 40.2503C366.468 44.7375 365.531 48.5647 363.655 51.7321C361.835 54.8996 359.27 57.3278 355.961 59.017C352.651 60.6536 348.818 61.4718 344.461 61.4718ZM344.212 49.8317C346.529 49.8317 348.377 49.3567 349.756 48.4063C351.135 47.4562 352.1 46.242 352.651 44.7639C353.258 43.2858 353.561 41.755 353.561 40.1711C353.561 38.5875 353.258 37.0039 352.651 35.4201C352.1 33.8364 351.135 32.543 349.756 31.5401C348.432 30.4842 346.584 29.9565 344.212 29.9565C341.896 29.9565 340.048 30.4842 338.669 31.5401C337.29 32.543 336.297 33.8364 335.69 35.4201C335.084 36.9511 334.78 38.5347 334.78 40.1711C334.78 41.755 335.084 43.3122 335.69 44.8431C336.352 46.3212 337.345 47.5354 338.669 48.4855C340.048 49.3831 341.896 49.8317 344.212 49.8317Z" fill="#1E1F23"/>
<path d="M351.41 14.8322C349.756 14.8322 348.294 14.5682 347.025 14.0404C345.757 13.4597 344.626 12.8262 343.633 12.1399C342.695 11.4537 341.813 10.8466 340.986 10.3186C340.213 9.73791 339.469 9.44764 338.752 9.44764C338.035 9.44764 337.483 9.7643 337.097 10.3978C336.711 10.9785 336.49 11.6648 336.435 12.4566C336.38 13.2484 336.435 13.9083 336.601 14.4362H327.831C327.61 12.1135 327.775 9.89641 328.327 7.78484C328.878 5.67326 329.954 3.95751 331.554 2.63775C333.208 1.26522 335.47 0.578951 338.338 0.578951C339.827 0.578951 341.096 0.843004 342.144 1.37077C343.192 1.84593 344.13 2.42664 344.957 3.11291C345.462 3.47558 345.94 3.821 346.391 4.14916C346.728 4.3941 347.05 4.62923 347.356 4.85488C348.128 5.38282 348.901 5.6467 349.673 5.6467C350.445 5.6467 350.997 5.38282 351.328 4.85488C351.659 4.32711 351.852 3.72001 351.907 3.03375C351.962 2.2947 351.934 1.63482 351.824 1.05411H360.511C360.732 3.27124 360.622 5.46198 360.18 7.62634C359.739 9.73791 358.829 11.4801 357.45 12.8526C356.071 14.1723 354.058 14.8322 351.41 14.8322Z" fill="#1E1F23"/>
<path fill-rule="evenodd" clip-rule="evenodd" d="M381.742 58.8587C385.052 60.6008 388.968 61.4718 393.491 61.4718C396.635 61.4718 399.613 60.9966 402.426 60.0465C405.239 59.0436 407.666 57.5125 409.707 55.4537C411.748 53.3422 413.127 50.6235 413.844 47.2979H400.937C400.716 47.9841 400.248 48.6175 399.531 49.1982C398.813 49.7261 397.903 50.1485 396.8 50.4651C395.752 50.7292 394.566 50.8611 393.243 50.8611C391.367 50.8611 389.823 50.5443 388.609 49.9108C387.396 49.2773 386.458 48.4063 385.796 47.2979C385.134 46.1892 384.721 44.975 384.555 43.6553H413.513C413.734 42.8634 413.872 42.098 413.927 41.359L414.092 38.9835C414.092 35.9744 413.623 33.2029 412.686 30.6691C411.803 28.1352 410.452 25.9444 408.631 24.0967C406.866 22.249 404.715 20.8237 402.178 19.8208C399.696 18.8179 396.828 18.3163 393.574 18.3163C389.106 18.3163 385.217 19.2401 381.908 21.0878C378.653 22.9353 376.116 25.4957 374.296 28.7687C372.476 32.0417 371.566 35.8424 371.566 40.1711C371.566 44.5 372.448 48.2744 374.213 51.4946C375.978 54.6619 378.488 57.1167 381.742 58.8587ZM401.599 35.1826H384.803C384.859 34.1269 385.19 33.071 385.796 32.0153C386.403 30.9594 387.341 30.0884 388.609 29.4022C389.878 28.7159 391.45 28.3727 393.325 28.3727C395.256 28.3727 396.828 28.7159 398.041 29.4022C399.255 30.0356 400.137 30.8802 400.689 31.9359C401.296 32.9918 401.599 34.0739 401.599 35.1826Z" fill="#1E1F23"/>
<path d="M438.267 61.4718C436.171 61.4718 434.02 61.2343 431.814 60.7591C429.663 60.284 427.649 59.5186 425.774 58.4629C423.899 57.407 422.327 55.9553 421.058 54.1076C419.79 52.2601 418.935 49.9372 418.493 47.1394H431.731C432.062 47.9841 432.558 48.7232 433.22 49.3567C433.937 49.9372 434.792 50.386 435.785 50.7026C436.833 50.9667 437.881 51.0986 438.929 51.0986C439.646 51.0986 440.336 51.0459 440.997 50.9403C441.659 50.8348 442.239 50.6499 442.735 50.386C443.287 50.1221 443.7 49.8053 443.976 49.4358C444.252 49.0134 444.39 48.5119 444.39 47.9312C444.39 47.0866 444.086 46.4795 443.48 46.1101C442.928 45.6877 442.128 45.371 441.08 45.1597C440.087 44.8958 438.929 44.632 437.605 44.3679C435.454 43.9457 433.138 43.4178 430.655 42.7843C428.229 42.1508 426.16 41.3062 424.45 40.2503C423.623 39.7225 422.906 39.1418 422.299 38.5083C421.692 37.8221 421.196 37.1094 420.81 36.3704C420.479 35.5786 420.203 34.7602 419.983 33.9156C419.817 33.0182 419.734 32.0681 419.734 31.065C419.734 28.7423 420.258 26.7626 421.306 25.1262C422.409 23.4896 423.816 22.1699 425.526 21.167C427.291 20.1639 429.249 19.4512 431.4 19.029C433.551 18.5538 435.702 18.3163 437.854 18.3163C440.887 18.3163 443.7 18.7913 446.293 19.7416C448.885 20.639 451.036 22.1171 452.746 24.1759C454.511 26.1819 455.614 28.8214 456.056 32.0944H443.397C443.231 31.0386 442.597 30.194 441.494 29.5605C440.391 28.927 439.012 28.6103 437.357 28.6103C436.75 28.6103 436.144 28.6895 435.537 28.8478C434.93 28.9534 434.379 29.1117 433.882 29.323C433.441 29.4813 433.055 29.7452 432.724 30.1148C432.448 30.4842 432.31 30.933 432.31 31.461C432.31 31.8304 432.421 32.2 432.641 32.5694C432.917 32.939 433.303 33.2821 433.8 33.5989C434.351 33.8628 435.041 34.1269 435.868 34.3907C437.743 34.7602 439.563 35.1298 441.329 35.4994C443.093 35.8161 444.776 36.1327 446.375 36.4495C448.14 36.819 449.85 37.4261 451.505 38.2708C453.16 39.0627 454.511 40.1975 455.559 41.6756C456.662 43.1539 457.214 45.1599 457.214 47.6937C457.214 50.3332 456.635 52.5503 455.476 54.3453C454.373 56.14 452.884 57.5389 451.009 58.542C449.133 59.5449 447.092 60.284 444.886 60.7591C442.68 61.2343 440.474 61.4718 438.267 61.4718Z" fill="#1E1F23"/>
<path fill-rule="evenodd" clip-rule="evenodd" d="M471.335 58.4629C474.148 60.3632 477.788 61.3135 482.256 61.3135C484.241 61.3135 486.2 61.0758 488.13 60.6008C490.061 60.0729 491.853 59.2547 493.508 58.146C495.163 57.0375 496.542 55.5595 497.645 53.7118L497.893 60.8383H503.519V4.85488H497.645V25.2846C496.486 23.648 495.08 22.3548 493.425 21.4044C491.77 20.4543 490.033 19.768 488.213 19.3456C486.393 18.8707 484.572 18.633 482.752 18.633C478.395 18.633 474.754 19.5569 471.831 21.4044C468.963 23.2521 466.784 25.8125 465.295 29.0853C463.861 32.3056 463.144 35.9744 463.144 40.092C463.144 44.0513 463.806 47.6409 465.129 50.8611C466.453 54.0284 468.522 56.5624 471.335 58.4629ZM491.026 54.1869C488.875 55.665 486.2 56.4041 483 56.4041C480.353 56.4041 478.119 55.9817 476.299 55.1371C474.534 54.2397 473.1 53.0255 471.997 51.4946C470.949 49.9636 470.176 48.2216 469.68 46.2684C469.239 44.3151 469.018 42.2563 469.018 40.092C469.018 37.083 469.487 34.338 470.424 31.8568C471.362 29.323 472.851 27.317 474.892 25.8389C476.988 24.3078 479.719 23.5424 483.083 23.5424C486.393 23.5424 489.123 24.2815 491.274 25.7595C493.425 27.1849 495.025 29.1117 496.073 31.5401C497.176 33.9684 497.727 36.7134 497.727 39.7753C497.727 42.7843 497.148 45.5557 495.99 48.0897C494.887 50.6235 493.232 52.6559 491.026 54.1869Z" fill="#1E1F23"/>
<path fill-rule="evenodd" clip-rule="evenodd" d="M534.003 61.3135C529.425 61.3135 525.591 60.4161 522.502 58.6212C519.414 56.7735 517.097 54.2397 515.553 51.0195C514.063 47.7992 513.319 44.1304 513.319 40.0128C513.319 35.8424 514.091 32.1736 515.635 29.0062C517.18 25.7861 519.496 23.2521 522.585 21.4044C525.674 19.5569 529.507 18.633 534.086 18.633C538.664 18.633 542.47 19.5569 545.503 21.4044C548.592 23.2521 550.881 25.7861 552.37 29.0062C553.915 32.1736 554.687 35.8424 554.687 40.0128C554.687 44.1304 553.915 47.7992 552.37 51.0195C550.826 54.2397 548.509 56.7735 545.42 58.6212C542.387 60.4161 538.581 61.3135 534.003 61.3135ZM534.003 56.4041C537.423 56.4041 540.236 55.6914 542.442 54.2661C544.648 52.788 546.275 50.8084 547.323 48.3272C548.371 45.846 548.895 43.0745 548.895 40.0128C548.895 36.9511 548.371 34.1796 547.323 31.6985C546.275 29.2173 544.648 27.2378 542.442 25.7595C540.236 24.2815 537.423 23.5424 534.003 23.5424C530.583 23.5424 527.77 24.2815 525.564 25.7595C523.357 27.2378 521.73 29.2173 520.682 31.6985C519.689 34.1796 519.193 36.9511 519.193 40.0128C519.193 43.0745 519.689 45.846 520.682 48.3272C521.73 50.8084 523.357 52.788 525.564 54.2661C527.77 55.6914 530.583 56.4041 534.003 56.4041Z" fill="#1E1F23"/>
<path fill-rule="evenodd" clip-rule="evenodd" d="M564.504 4.77572V60.8383H588.001C591.366 60.8383 594.537 60.548 597.516 59.9673C600.494 59.3866 603.087 58.4101 605.293 57.0375C607.554 55.665 609.319 53.8701 610.588 51.653C611.912 49.4358 612.574 46.6908 612.574 43.4178C612.574 39.9336 611.774 37.1094 610.174 34.9451C608.63 32.7807 606.562 31.2233 603.969 30.2731C605.9 29.2173 607.389 27.7128 608.437 25.7595C609.485 23.8065 610.009 21.7477 610.009 19.5833C610.009 16.7325 609.54 14.3835 608.602 12.5358C607.665 10.6355 606.369 9.13081 604.714 8.02233C603.114 6.86091 601.211 6.0427 599.005 5.56754C596.854 5.03977 594.482 4.77572 591.89 4.77572H564.504ZM589.987 49.0398H577.907V37.6374H590.98C592.248 37.6374 593.379 37.7429 594.372 37.954C595.365 38.1123 596.22 38.4292 596.937 38.9042C597.654 39.3265 598.178 39.8809 598.509 40.5671C598.895 41.2534 599.088 42.1244 599.088 43.1803C599.088 44.1832 598.867 45.0806 598.426 45.8726C598.04 46.6116 597.433 47.2187 596.606 47.6937C595.833 48.1161 594.868 48.4591 593.71 48.7232C592.607 48.9343 591.366 49.0398 589.987 49.0398ZM588.58 27.1057H577.907V16.6534H589.159C590.649 16.6534 591.945 16.7855 593.048 17.0494C594.206 17.2605 595.089 17.7092 595.696 18.3955C596.357 19.029 596.688 19.9791 596.688 21.2461C596.688 22.1963 596.495 23.041 596.109 23.7801C595.778 24.4663 595.282 25.0733 594.62 25.6012C593.958 26.0764 593.103 26.4458 592.055 26.7099C591.062 26.9737 589.904 27.1057 588.58 27.1057Z" fill="#1E1F23"/>
<path d="M619.49 60.8383V19.1082H631.073L631.983 23.5424C633.086 22.0116 634.3 20.8765 635.624 20.1375C637.002 19.3984 638.381 18.9234 639.76 18.7122C641.194 18.4483 642.573 18.3163 643.897 18.3163L644.099 18.3168L644.235 18.3179C644.369 18.319 644.502 18.3211 644.632 18.3238C644.698 18.3251 644.764 18.3267 644.83 18.3285C645.029 18.3339 645.222 18.341 645.409 18.35C645.66 18.3618 645.9 18.3771 646.131 18.3955C646.848 18.3955 647.317 18.4219 647.538 18.4747V30.5106H644.807C642.491 30.5106 640.395 30.8539 638.519 31.5401C636.699 32.2264 635.265 33.3613 634.217 34.9451C633.169 36.5287 632.645 38.7458 632.645 41.5965V60.8383H619.49Z" fill="#1E1F23"/>
<path fill-rule="evenodd" clip-rule="evenodd" d="M660.561 60.68C662.382 61.2079 664.312 61.4718 666.353 61.4718C667.07 61.4718 668.201 61.3663 669.745 61.1551C671.29 60.9966 672.944 60.4953 674.709 59.6505C676.474 58.8059 678.046 57.3806 679.425 55.3746L679.508 60.8383H691.505V38.4292C691.505 31.9359 689.933 26.9737 686.789 23.5424C683.645 20.1111 678.874 18.3955 672.476 18.3955C670.049 18.3955 667.677 18.6858 665.36 19.2665C663.044 19.7944 660.948 20.6126 659.072 21.7213C657.252 22.8298 655.708 24.2815 654.439 26.0764C653.226 27.8183 652.426 29.9301 652.04 32.4111H665.195C665.415 31.6721 665.829 31.065 666.436 30.5898C667.098 30.062 667.897 29.666 668.835 29.4022C669.828 29.0853 670.876 28.927 671.979 28.927C673.524 28.927 674.82 29.2173 675.868 29.798C676.916 30.3787 677.688 31.1705 678.184 32.1736C678.736 33.1238 679.012 34.2588 679.012 35.5786H674.875C671.786 35.5786 668.808 35.7105 665.939 35.9744C663.071 36.2384 660.506 36.819 658.245 37.7165C656.039 38.5611 654.274 39.8809 652.95 41.6756C651.681 43.4178 651.047 45.7932 651.047 48.8023C651.047 50.9139 651.46 52.7614 652.288 54.3453C653.115 55.9289 654.246 57.2487 655.68 58.3044C657.114 59.3602 658.741 60.152 660.561 60.68ZM674.296 50.7026C672.862 51.3889 671.317 51.7321 669.662 51.7321C668.614 51.7321 667.649 51.5738 666.767 51.257C665.939 50.9403 665.277 50.4915 664.781 49.9108C664.285 49.2773 664.036 48.5119 664.036 47.6145C664.036 46.7699 664.23 46.0837 664.616 45.5557C665.002 45.0278 665.526 44.632 666.187 44.3679C666.849 44.0513 667.594 43.8401 668.421 43.7344C669.304 43.6289 670.186 43.5761 671.069 43.5761H679.177V44.2096C679.177 45.5293 678.708 46.7699 677.771 47.9312C676.888 49.0398 675.73 49.9636 674.296 50.7026Z" fill="#1E1F23"/>
<path d="M717.34 61.4718C715.244 61.4718 713.094 61.2343 710.887 60.7591C708.736 60.284 706.723 59.5186 704.847 58.4629C702.972 57.407 701.4 55.9553 700.131 54.1076C698.863 52.2601 698.008 49.9372 697.567 47.1394H710.804C711.135 47.9841 711.632 48.7232 712.294 49.3567C713.011 49.9372 713.866 50.386 714.858 50.7026C715.906 50.9667 716.954 51.0986 718.002 51.0986C718.719 51.0986 719.409 51.0459 720.071 50.9403C720.733 50.8348 721.312 50.6499 721.808 50.386C722.36 50.1221 722.774 49.8053 723.049 49.4358C723.325 49.0134 723.463 48.5119 723.463 47.9312C723.463 47.0866 723.16 46.4795 722.553 46.1101C722.001 45.6877 721.202 45.371 720.154 45.1597C719.161 44.8958 718.002 44.632 716.679 44.3679C714.527 43.9457 712.211 43.4178 709.729 42.7843C707.302 42.1508 705.233 41.3062 703.524 40.2503C702.696 39.7225 701.979 39.1418 701.372 38.5083C700.766 37.8221 700.269 37.1094 699.883 36.3704C699.552 35.5786 699.276 34.7602 699.056 33.9156C698.89 33.0182 698.808 32.0681 698.808 31.065C698.808 28.7423 699.332 26.7626 700.38 25.1262C701.483 23.4896 702.889 22.1699 704.599 21.167C706.364 20.1639 708.322 19.4512 710.473 19.029C712.625 18.5538 714.776 18.3163 716.927 18.3163C719.961 18.3163 722.774 18.7913 725.366 19.7416C727.958 20.639 730.109 22.1171 731.819 24.1759C733.584 26.1819 734.688 28.8214 735.129 32.0944H722.47C722.305 31.0386 721.67 30.194 720.567 29.5605C719.464 28.927 718.085 28.6103 716.43 28.6103C715.824 28.6103 715.217 28.6895 714.61 28.8478C714.004 28.9534 713.452 29.1117 712.955 29.323C712.514 29.4813 712.128 29.7452 711.797 30.1148C711.521 30.4842 711.384 30.933 711.384 31.461C711.384 31.8304 711.494 32.2 711.714 32.5694C711.99 32.939 712.376 33.2821 712.873 33.5989C713.424 33.8628 714.114 34.1269 714.941 34.3907C716.817 34.7602 718.637 35.1298 720.402 35.4994C722.167 35.8161 723.849 36.1327 725.449 36.4495C727.214 36.819 728.924 37.4261 730.578 38.2708C732.233 39.0627 733.584 40.1975 734.632 41.6756C735.736 43.1539 736.287 45.1599 736.287 47.6937C736.287 50.3332 735.708 52.5503 734.55 54.3453C733.447 56.14 731.957 57.5389 730.082 58.542C728.207 59.5449 726.166 60.284 723.959 60.7591C721.753 61.2343 719.547 61.4718 717.34 61.4718Z" fill="#1E1F23"/>
<path d="M742.382 19.1082V60.8383H755.537V19.1082H742.382Z" fill="#1E1F23"/>
<path d="M743.127 13.5652C744.616 14.9378 746.574 15.624 749.001 15.624C751.373 15.624 753.304 14.9378 754.793 13.5652C756.282 12.1927 757.027 10.3714 757.027 8.1015C757.027 5.77881 756.254 3.93112 754.71 2.55859C753.166 1.18605 751.29 0.499786 749.084 0.499786C746.768 0.499786 744.837 1.21244 743.292 2.63775C741.748 4.06306 740.976 5.91076 740.976 8.18066C740.976 10.3978 741.693 12.1927 743.127 13.5652Z" fill="#1E1F23"/>
<path d="M763.955 60.8383V4.77572H777.11V60.8383H763.955Z" fill="#1E1F23"/>
<path d="M9.92725 9.4289C15.7139 3.71165 23.5623 0.499756 31.7459 0.499756V24.8891C34.6047 10.9736 47.0569 0.499756 61.9851 0.499756C76.9133 0.499756 89.3655 10.9736 92.2243 24.8891V0.499756C100.408 0.499756 108.256 3.71165 114.043 9.4289C118.36 13.6944 121.266 19.0937 122.463 24.9185V0.499756C130.647 0.499756 138.495 3.71165 144.282 9.4289C150.069 15.1461 153.32 22.9004 153.32 30.9858C153.32 39.0711 150.069 46.8254 144.282 52.5426C138.495 58.2599 130.647 61.4718 122.463 61.4718V37.053C121.266 42.8778 118.36 48.2771 114.043 52.5426C108.256 58.2599 100.408 61.4718 92.2243 61.4718V37.0824C89.3655 50.998 76.9133 61.4718 61.9851 61.4718C47.0569 61.4718 34.6047 50.998 31.7459 37.0824V61.4718C23.5623 61.4718 15.7139 58.2599 9.92724 52.5426C4.14057 46.8254 0.889648 39.0711 0.889648 30.9858C0.889648 22.9004 4.14057 15.1461 9.92725 9.4289Z" fill="url(#paint0_linear_170_2585)"/>
<defs>
<linearGradient id="paint0_linear_170_2585" x1="0.889648" y1="30.9858" x2="153.32" y2="30.9858" gradientUnits="userSpaceOnUse">
<stop stop-color="#9DD9EE"/>
<stop offset="1" stop-color="#03A689"/>
</linearGradient>
</defs>
</svg>
