<svg width="778" height="62" viewBox="0 0 778 62" fill="none" xmlns="http://www.w3.org/2000/svg">
<path d="M184.113 60.8525V4.78988H197.516V49.054H226.391V60.8525H184.113Z" fill="white"/>
<path fill-rule="evenodd" clip-rule="evenodd" d="M241.398 58.8728C244.707 60.615 248.623 61.486 253.146 61.486C256.29 61.486 259.269 61.0108 262.082 60.0607C264.895 59.0577 267.322 57.5267 269.362 55.4679C271.403 53.3563 272.782 50.6376 273.499 47.312H260.592C260.372 47.9983 259.903 48.6316 259.186 49.2123C258.469 49.7403 257.559 50.1626 256.456 50.4793C255.408 50.7434 254.222 50.8753 252.898 50.8753C251.023 50.8753 249.478 50.5585 248.265 49.925C247.051 49.2915 246.114 48.4205 245.452 47.312C244.79 46.2034 244.376 44.9892 244.211 43.6694H273.168C273.389 42.8776 273.527 42.1122 273.582 41.3731L273.747 38.9977C273.747 35.9885 273.279 33.2171 272.341 30.6833C271.458 28.1493 270.107 25.9586 268.287 24.1109C266.522 22.2632 264.371 20.8379 261.833 19.835C259.351 18.832 256.483 18.3305 253.229 18.3305C248.761 18.3305 244.873 19.2543 241.563 21.1019C238.309 22.9495 235.772 25.5098 233.951 28.7828C232.131 32.0558 231.221 35.8566 231.221 40.1853C231.221 44.5142 232.104 48.2886 233.869 51.5088C235.634 54.6761 238.143 57.1309 241.398 58.8728ZM261.254 35.1967H244.459C244.514 34.141 244.845 33.0851 245.452 32.0294C246.058 30.9736 246.996 30.1026 248.265 29.4163C249.533 28.73 251.105 28.3868 252.981 28.3868C254.911 28.3868 256.483 28.73 257.697 29.4163C258.91 30.0498 259.793 30.8944 260.344 31.9501C260.951 33.006 261.254 34.0881 261.254 35.1967Z" fill="white"/>
<path d="M280.465 60.8525V19.1223H293.62V60.8525H280.465Z" fill="white"/>
<path d="M287.084 15.6382C284.657 15.6382 282.699 14.9519 281.21 13.5794C279.776 12.2069 279.059 10.412 279.059 8.19482C279.059 5.92492 279.831 4.07722 281.375 2.65191C282.92 1.2266 284.85 0.513947 287.167 0.513947C289.373 0.513947 291.249 1.20021 292.793 2.57275C294.337 3.94528 295.11 5.79297 295.11 8.11566C295.11 10.3856 294.365 12.2069 292.876 13.5794C291.387 14.9519 289.456 15.6382 287.084 15.6382Z" fill="white"/>
<path d="M302.038 4.78988V60.8525H315.193V4.78988H302.038Z" fill="white"/>
<path fill-rule="evenodd" clip-rule="evenodd" d="M344.461 61.486C340.103 61.486 336.214 60.6414 332.795 58.952C329.43 57.2628 326.783 54.8344 324.852 51.6671C322.922 48.4469 321.956 44.5933 321.956 40.1061C321.956 35.5134 322.922 31.6071 324.852 28.3868C326.838 25.114 329.513 22.6328 332.877 20.9436C336.242 19.2015 340.048 18.3305 344.295 18.3305C348.597 18.3305 352.403 19.2279 355.713 21.0228C359.022 22.7648 361.642 25.2723 363.573 28.5452C365.503 31.7654 366.468 35.6719 366.468 40.2645C366.468 44.7517 365.531 48.5788 363.655 51.7463C361.835 54.9137 359.27 57.342 355.961 59.0312C352.651 60.6678 348.818 61.486 344.461 61.486ZM344.212 49.8458C346.529 49.8458 348.377 49.3708 349.756 48.4205C351.135 47.4704 352.1 46.2562 352.651 44.7781C353.258 43.3 353.561 41.7691 353.561 40.1853C353.561 38.6017 353.258 37.018 352.651 35.4342C352.1 33.8506 351.135 32.5572 349.756 31.5543C348.432 30.4984 346.584 29.9706 344.212 29.9706C341.896 29.9706 340.048 30.4984 338.669 31.5543C337.29 32.5572 336.297 33.8506 335.69 35.4342C335.084 36.9652 334.78 38.5489 334.78 40.1853C334.78 41.7691 335.084 43.3264 335.69 44.8572C336.352 46.3353 337.345 47.5495 338.669 48.4997C340.048 49.3972 341.896 49.8458 344.212 49.8458Z" fill="white"/>
<path d="M351.41 14.8464C349.756 14.8464 348.294 14.5823 347.025 14.0546C345.757 13.4738 344.626 12.8404 343.633 12.1541C342.695 11.4678 341.813 10.8607 340.986 10.3328C340.213 9.75207 339.469 9.4618 338.752 9.4618C338.035 9.4618 337.483 9.77846 337.097 10.412C336.711 10.9927 336.49 11.6789 336.435 12.4708C336.38 13.2626 336.435 13.9225 336.601 14.4504H327.831C327.61 12.1277 327.775 9.91057 328.327 7.799C328.878 5.68742 329.954 3.97167 331.554 2.65191C333.208 1.27938 335.47 0.593112 338.338 0.593112C339.827 0.593112 341.096 0.857165 342.144 1.38493C343.192 1.86009 344.13 2.4408 344.957 3.12707C345.462 3.48974 345.94 3.83516 346.391 4.16332C346.728 4.40826 347.05 4.64339 347.356 4.86904C348.128 5.39698 348.901 5.66086 349.673 5.66086C350.445 5.66086 350.997 5.39698 351.328 4.86904C351.659 4.34127 351.852 3.73417 351.907 3.04791C351.962 2.30886 351.934 1.64898 351.824 1.06827H360.511C360.732 3.2854 360.622 5.47614 360.18 7.6405C359.739 9.75207 358.829 11.4942 357.45 12.8667C356.071 14.1865 354.058 14.8464 351.41 14.8464Z" fill="white"/>
<path fill-rule="evenodd" clip-rule="evenodd" d="M381.742 58.8728C385.052 60.615 388.968 61.486 393.491 61.486C396.635 61.486 399.613 61.0108 402.426 60.0607C405.239 59.0577 407.666 57.5267 409.707 55.4679C411.748 53.3563 413.127 50.6376 413.844 47.312H400.937C400.716 47.9983 400.248 48.6316 399.531 49.2123C398.813 49.7403 397.903 50.1626 396.8 50.4793C395.752 50.7434 394.566 50.8753 393.243 50.8753C391.367 50.8753 389.823 50.5585 388.609 49.925C387.396 49.2915 386.458 48.4205 385.796 47.312C385.134 46.2034 384.721 44.9892 384.555 43.6694H413.513C413.734 42.8776 413.872 42.1122 413.927 41.3731L414.092 38.9977C414.092 35.9885 413.623 33.2171 412.686 30.6833C411.803 28.1493 410.452 25.9586 408.631 24.1109C406.866 22.2632 404.715 20.8379 402.178 19.835C399.696 18.832 396.828 18.3305 393.574 18.3305C389.106 18.3305 385.217 19.2543 381.908 21.1019C378.653 22.9495 376.116 25.5098 374.296 28.7828C372.476 32.0558 371.566 35.8566 371.566 40.1853C371.566 44.5142 372.448 48.2886 374.213 51.5088C375.978 54.6761 378.488 57.1309 381.742 58.8728ZM401.599 35.1967H384.803C384.859 34.141 385.19 33.0851 385.796 32.0294C386.403 30.9736 387.341 30.1026 388.609 29.4163C389.878 28.73 391.45 28.3868 393.325 28.3868C395.256 28.3868 396.828 28.73 398.041 29.4163C399.255 30.0498 400.137 30.8944 400.689 31.9501C401.296 33.006 401.599 34.0881 401.599 35.1967Z" fill="white"/>
<path d="M438.267 61.486C436.171 61.486 434.02 61.2485 431.814 60.7733C429.663 60.2981 427.649 59.5327 425.774 58.477C423.899 57.4211 422.327 55.9694 421.058 54.1217C419.79 52.2742 418.935 49.9514 418.493 47.1535H431.731C432.062 47.9983 432.558 48.7373 433.22 49.3708C433.937 49.9514 434.792 50.4001 435.785 50.7168C436.833 50.9809 437.881 51.1128 438.929 51.1128C439.646 51.1128 440.336 51.06 440.997 50.9545C441.659 50.8489 442.239 50.664 442.735 50.4001C443.287 50.1363 443.7 49.8194 443.976 49.45C444.252 49.0276 444.39 48.5261 444.39 47.9453C444.39 47.1007 444.086 46.4936 443.48 46.1242C442.928 45.7018 442.128 45.3852 441.08 45.1739C440.087 44.91 438.929 44.6461 437.605 44.3821C435.454 43.9599 433.138 43.4319 430.655 42.7984C428.229 42.1649 426.16 41.3203 424.45 40.2645C423.623 39.7367 422.906 39.156 422.299 38.5225C421.692 37.8362 421.196 37.1236 420.81 36.3845C420.479 35.5927 420.203 34.7743 419.983 33.9297C419.817 33.0324 419.734 32.0822 419.734 31.0791C419.734 28.7564 420.258 26.7768 421.306 25.1404C422.409 23.5038 423.816 22.184 425.526 21.1811C427.291 20.178 429.249 19.4654 431.4 19.0431C433.551 18.568 435.702 18.3305 437.854 18.3305C440.887 18.3305 443.7 18.8055 446.293 19.7558C448.885 20.6532 451.036 22.1313 452.746 24.1901C454.511 26.1961 455.614 28.8356 456.056 32.1086H443.397C443.231 31.0527 442.597 30.2081 441.494 29.5746C440.391 28.9412 439.012 28.6245 437.357 28.6245C436.75 28.6245 436.144 28.7037 435.537 28.862C434.93 28.9675 434.379 29.1259 433.882 29.3372C433.441 29.4955 433.055 29.7594 432.724 30.129C432.448 30.4984 432.31 30.9472 432.31 31.4751C432.31 31.8446 432.421 32.2142 432.641 32.5836C432.917 32.9532 433.303 33.2962 433.8 33.6131C434.351 33.877 435.041 34.141 435.868 34.4049C437.743 34.7743 439.563 35.1439 441.329 35.5135C443.093 35.8302 444.776 36.1469 446.375 36.4637C448.14 36.8331 449.85 37.4402 451.505 38.285C453.16 39.0768 454.511 40.2117 455.559 41.6898C456.662 43.168 457.214 45.1741 457.214 47.7079C457.214 50.3474 456.635 52.5645 455.476 54.3594C454.373 56.1542 452.884 57.5531 451.009 58.5562C449.133 59.5591 447.092 60.2981 444.886 60.7733C442.68 61.2485 440.474 61.486 438.267 61.486Z" fill="white"/>
<path fill-rule="evenodd" clip-rule="evenodd" d="M471.335 58.477C474.148 60.3773 477.788 61.3276 482.256 61.3276C484.241 61.3276 486.2 61.09 488.13 60.615C490.061 60.087 491.853 59.2688 493.508 58.1602C495.163 57.0517 496.542 55.5736 497.645 53.7259L497.893 60.8525H503.519V4.86904H497.645V25.2987C496.486 23.6621 495.08 22.3689 493.425 21.4186C491.77 20.4685 490.033 19.7822 488.213 19.3598C486.393 18.8848 484.572 18.6472 482.752 18.6472C478.395 18.6472 474.754 19.5711 471.831 21.4186C468.963 23.2663 466.784 25.8267 465.295 29.0995C463.861 32.3197 463.144 35.9885 463.144 40.1061C463.144 44.0654 463.806 47.6551 465.129 50.8753C466.453 54.0426 468.522 56.5765 471.335 58.477ZM491.026 54.2011C488.875 55.6792 486.2 56.4182 483 56.4182C480.353 56.4182 478.119 55.9958 476.299 55.1512C474.534 54.2539 473.1 53.0397 471.997 51.5088C470.949 49.9778 470.176 48.2358 469.68 46.2825C469.239 44.3293 469.018 42.2705 469.018 40.1061C469.018 37.0972 469.487 34.3521 470.424 31.8709C471.362 29.3372 472.851 27.3311 474.892 25.853C476.988 24.322 479.719 23.5566 483.083 23.5566C486.393 23.5566 489.123 24.2956 491.274 25.7737C493.425 27.199 495.025 29.1259 496.073 31.5543C497.176 33.9825 497.727 36.7276 497.727 39.7895C497.727 42.7984 497.148 45.5699 495.99 48.1038C494.887 50.6376 493.232 52.6701 491.026 54.2011Z" fill="white"/>
<path fill-rule="evenodd" clip-rule="evenodd" d="M534.003 61.3276C529.425 61.3276 525.591 60.4303 522.502 58.6353C519.414 56.7877 517.097 54.2539 515.553 51.0336C514.063 47.8134 513.319 44.1446 513.319 40.027C513.319 35.8566 514.091 32.1878 515.635 29.0203C517.18 25.8003 519.496 23.2663 522.585 21.4186C525.674 19.5711 529.507 18.6472 534.086 18.6472C538.664 18.6472 542.47 19.5711 545.503 21.4186C548.592 23.2663 550.881 25.8003 552.37 29.0203C553.915 32.1878 554.687 35.8566 554.687 40.027C554.687 44.1446 553.915 47.8134 552.37 51.0336C550.826 54.2539 548.509 56.7877 545.42 58.6353C542.387 60.4303 538.581 61.3276 534.003 61.3276ZM534.003 56.4182C537.423 56.4182 540.236 55.7056 542.442 54.2802C544.648 52.8022 546.275 50.8225 547.323 48.3413C548.371 45.8602 548.895 43.0887 548.895 40.027C548.895 36.9652 548.371 34.1938 547.323 31.7126C546.275 29.2314 544.648 27.252 542.442 25.7737C540.236 24.2956 537.423 23.5566 534.003 23.5566C530.583 23.5566 527.77 24.2956 525.564 25.7737C523.357 27.252 521.73 29.2314 520.682 31.7126C519.689 34.1938 519.193 36.9652 519.193 40.027C519.193 43.0887 519.689 45.8602 520.682 48.3413C521.73 50.8225 523.357 52.8022 525.564 54.2802C527.77 55.7056 530.583 56.4182 534.003 56.4182Z" fill="white"/>
<path fill-rule="evenodd" clip-rule="evenodd" d="M564.504 4.78988V60.8525H588.001C591.366 60.8525 594.537 60.5622 597.516 59.9815C600.494 59.4008 603.087 58.4242 605.293 57.0517C607.554 55.6792 609.319 53.8843 610.588 51.6671C611.912 49.45 612.574 46.7049 612.574 43.4319C612.574 39.9478 611.774 37.1236 610.174 34.9592C608.63 32.7949 606.562 31.2375 603.969 30.2873C605.9 29.2314 607.389 27.727 608.437 25.7737C609.485 23.8206 610.009 21.7618 610.009 19.5975C610.009 16.7467 609.54 14.3976 608.602 12.5499C607.665 10.6496 606.369 9.14497 604.714 8.03649C603.114 6.87507 601.211 6.05686 599.005 5.5817C596.854 5.05393 594.482 4.78988 591.89 4.78988H564.504ZM589.987 49.054H577.907V37.6515H590.98C592.248 37.6515 593.379 37.7571 594.372 37.9682C595.365 38.1265 596.22 38.4433 596.937 38.9183C597.654 39.3407 598.178 39.895 598.509 40.5813C598.895 41.2676 599.088 42.1386 599.088 43.1944C599.088 44.1974 598.867 45.0947 598.426 45.8867C598.04 46.6258 597.433 47.2329 596.606 47.7079C595.833 48.1302 594.868 48.4733 593.71 48.7373C592.607 48.9484 591.366 49.054 589.987 49.054ZM588.58 27.1199H577.907V16.6675H589.159C590.649 16.6675 591.945 16.7996 593.048 17.0635C594.206 17.2746 595.089 17.7234 595.696 18.4097C596.357 19.0431 596.688 19.9933 596.688 21.2603C596.688 22.2104 596.495 23.0552 596.109 23.7942C595.778 24.4805 595.282 25.0874 594.62 25.6154C593.958 26.0905 593.103 26.46 592.055 26.724C591.062 26.9879 589.904 27.1199 588.58 27.1199Z" fill="white"/>
<path d="M619.49 60.8525V19.1223H631.073L631.983 23.5566C633.086 22.0257 634.3 20.8907 635.624 20.1516C637.002 19.4126 638.381 18.9376 639.76 18.7263C641.194 18.4624 642.573 18.3305 643.897 18.3305L644.099 18.331L644.235 18.332C644.369 18.3332 644.502 18.3352 644.632 18.3379C644.698 18.3393 644.764 18.3408 644.83 18.3427C645.029 18.3481 645.222 18.3552 645.409 18.3642C645.66 18.376 645.9 18.3912 646.131 18.4097C646.848 18.4097 647.317 18.436 647.538 18.4888V30.5248H644.807C642.491 30.5248 640.395 30.868 638.519 31.5543C636.699 32.2405 635.265 33.3754 634.217 34.9592C633.169 36.5429 632.645 38.76 632.645 41.6106V60.8525H619.49Z" fill="white"/>
<path fill-rule="evenodd" clip-rule="evenodd" d="M660.561 60.6941C662.382 61.2221 664.312 61.486 666.353 61.486C667.07 61.486 668.201 61.3804 669.745 61.1693C671.29 61.0108 672.944 60.5094 674.709 59.6647C676.474 58.8201 678.046 57.3948 679.425 55.3887L679.508 60.8525H691.505V38.4433C691.505 31.9501 689.933 26.9879 686.789 23.5566C683.645 20.1252 678.874 18.4097 672.476 18.4097C670.049 18.4097 667.677 18.6999 665.36 19.2806C663.044 19.8086 660.948 20.6268 659.072 21.7354C657.252 22.8439 655.708 24.2956 654.439 26.0905C653.226 27.8325 652.426 29.9443 652.04 32.4253H665.195C665.415 31.6862 665.829 31.0791 666.436 30.604C667.098 30.0762 667.897 29.6802 668.835 29.4163C669.828 29.0995 670.876 28.9412 671.979 28.9412C673.524 28.9412 674.82 29.2314 675.868 29.8121C676.916 30.3929 677.688 31.1847 678.184 32.1878C678.736 33.1379 679.012 34.273 679.012 35.5927H674.875C671.786 35.5927 668.808 35.7247 665.939 35.9885C663.071 36.2526 660.506 36.8331 658.245 37.7307C656.039 38.5753 654.274 39.895 652.95 41.6898C651.681 43.4319 651.047 45.8074 651.047 48.8165C651.047 50.9281 651.46 52.7756 652.288 54.3594C653.115 55.9431 654.246 57.2628 655.68 58.3185C657.114 59.3744 658.741 60.1662 660.561 60.6941ZM674.296 50.7168C672.862 51.4031 671.317 51.7463 669.662 51.7463C668.614 51.7463 667.649 51.588 666.767 51.2711C665.939 50.9545 665.277 50.5057 664.781 49.925C664.285 49.2915 664.036 48.5261 664.036 47.6287C664.036 46.7841 664.23 46.0978 664.616 45.5699C665.002 45.0419 665.526 44.6461 666.187 44.3821C666.849 44.0654 667.594 43.8543 668.421 43.7486C669.304 43.643 670.186 43.5903 671.069 43.5903H679.177V44.2237C679.177 45.5435 678.708 46.7841 677.771 47.9453C676.888 49.054 675.73 49.9778 674.296 50.7168Z" fill="white"/>
<path d="M717.34 61.486C715.244 61.486 713.094 61.2485 710.887 60.7733C708.736 60.2981 706.723 59.5327 704.847 58.477C702.972 57.4211 701.4 55.9694 700.131 54.1217C698.863 52.2742 698.008 49.9514 697.567 47.1535H710.804C711.135 47.9983 711.632 48.7373 712.294 49.3708C713.011 49.9514 713.866 50.4001 714.858 50.7168C715.906 50.9809 716.954 51.1128 718.002 51.1128C718.719 51.1128 719.409 51.06 720.071 50.9545C720.733 50.8489 721.312 50.664 721.808 50.4001C722.36 50.1363 722.774 49.8194 723.049 49.45C723.325 49.0276 723.463 48.5261 723.463 47.9453C723.463 47.1007 723.16 46.4936 722.553 46.1242C722.001 45.7018 721.202 45.3852 720.154 45.1739C719.161 44.91 718.002 44.6461 716.679 44.3821C714.527 43.9599 712.211 43.4319 709.729 42.7984C707.302 42.1649 705.233 41.3203 703.524 40.2645C702.696 39.7367 701.979 39.156 701.372 38.5225C700.766 37.8362 700.269 37.1236 699.883 36.3845C699.552 35.5927 699.276 34.7743 699.056 33.9297C698.89 33.0324 698.808 32.0822 698.808 31.0791C698.808 28.7564 699.332 26.7768 700.38 25.1404C701.483 23.5038 702.889 22.184 704.599 21.1811C706.364 20.178 708.322 19.4654 710.473 19.0431C712.625 18.568 714.776 18.3305 716.927 18.3305C719.961 18.3305 722.774 18.8055 725.366 19.7558C727.958 20.6532 730.109 22.1313 731.819 24.1901C733.584 26.1961 734.688 28.8356 735.129 32.1086H722.47C722.305 31.0527 721.67 30.2081 720.567 29.5746C719.464 28.9412 718.085 28.6245 716.43 28.6245C715.824 28.6245 715.217 28.7037 714.61 28.862C714.004 28.9675 713.452 29.1259 712.955 29.3372C712.514 29.4955 712.128 29.7594 711.797 30.129C711.521 30.4984 711.384 30.9472 711.384 31.4751C711.384 31.8446 711.494 32.2142 711.714 32.5836C711.99 32.9532 712.376 33.2962 712.873 33.6131C713.424 33.877 714.114 34.141 714.941 34.4049C716.817 34.7743 718.637 35.1439 720.402 35.5135C722.167 35.8302 723.849 36.1469 725.449 36.4637C727.214 36.8331 728.924 37.4402 730.578 38.285C732.233 39.0768 733.584 40.2117 734.632 41.6898C735.736 43.168 736.287 45.1741 736.287 47.7079C736.287 50.3474 735.708 52.5645 734.55 54.3594C733.447 56.1542 731.957 57.5531 730.082 58.5562C728.207 59.5591 726.166 60.2981 723.959 60.7733C721.753 61.2485 719.547 61.486 717.34 61.486Z" fill="white"/>
<path d="M742.382 19.1223V60.8525H755.537V19.1223H742.382Z" fill="white"/>
<path d="M743.127 13.5794C744.616 14.9519 746.574 15.6382 749.001 15.6382C751.373 15.6382 753.304 14.9519 754.793 13.5794C756.282 12.2069 757.027 10.3856 757.027 8.11566C757.027 5.79297 756.254 3.94528 754.71 2.57275C753.166 1.20021 751.29 0.513947 749.084 0.513947C746.768 0.513947 744.837 1.2266 743.292 2.65191C741.748 4.07722 740.976 5.92492 740.976 8.19482C740.976 10.412 741.693 12.2069 743.127 13.5794Z" fill="white"/>
<path d="M763.955 60.8525V4.78988H777.11V60.8525H763.955Z" fill="white"/>
<path d="M9.92725 9.44306C15.7139 3.72581 23.5623 0.513916 31.7459 0.513916V24.9033C34.6047 10.9877 47.0569 0.513916 61.9851 0.513916C76.9133 0.513916 89.3655 10.9877 92.2243 24.9033V0.513916C100.408 0.513916 108.256 3.72581 114.043 9.44306C118.36 13.7086 121.266 19.1079 122.463 24.9327V0.513916C130.647 0.513916 138.495 3.72581 144.282 9.44306C150.069 15.1603 153.32 22.9145 153.32 30.9999C153.32 39.0853 150.069 46.8395 144.282 52.5568C138.495 58.274 130.647 61.4859 122.463 61.4859V37.0672C121.266 42.892 118.36 48.2913 114.043 52.5568C108.256 58.274 100.408 61.4859 92.2243 61.4859V37.0966C89.3655 51.0121 76.9133 61.4859 61.9851 61.4859C47.0569 61.4859 34.6047 51.0121 31.7459 37.0966V61.4859C23.5623 61.4859 15.7139 58.274 9.92724 52.5568C4.14057 46.8395 0.889648 39.0853 0.889648 30.9999C0.889648 22.9145 4.14057 15.1603 9.92725 9.44306Z" fill="url(#paint0_linear_170_2582)"/>
<defs>
<linearGradient id="paint0_linear_170_2582" x1="0.889648" y1="30.9999" x2="153.32" y2="30.9999" gradientUnits="userSpaceOnUse">
<stop stop-color="#9DD9EE"/>
<stop offset="1" stop-color="#03A689"/>
</linearGradient>
</defs>
</svg>
