<svg width="136" height="408" viewBox="0 0 136 408" fill="none" xmlns="http://www.w3.org/2000/svg">
<path d="M10.0275 397.614C3.60488 391.126 -0.00341797 382.327 -0.00341797 373.152H27.3955C11.7629 369.947 -0.00341797 355.987 -0.00341797 339.25C-0.00341797 322.514 11.7629 308.553 27.3955 305.348H-0.00341797C-0.00341797 296.173 3.60488 287.374 10.0275 280.886C16.4504 274.399 25.1615 270.754 34.2446 270.754C43.3277 270.754 52.0389 274.399 58.4617 280.886C64.8844 287.374 68.4927 296.173 68.4927 305.348H41.0937C56.7264 308.553 68.4927 322.514 68.4927 339.25C68.4927 355.987 56.7264 369.947 41.0935 373.152H68.4927C68.4927 382.327 64.8844 391.126 58.4617 397.614C52.0389 404.101 43.3277 407.746 34.2446 407.746C25.1615 407.746 16.4504 404.101 10.0275 397.614Z" fill="#D9D9D9"/>
<path d="M10.0275 397.614C3.60488 391.126 -0.00341797 382.327 -0.00341797 373.152H27.3955C11.7629 369.947 -0.00341797 355.987 -0.00341797 339.25C-0.00341797 322.514 11.7629 308.553 27.3955 305.348H-0.00341797C-0.00341797 296.173 3.60488 287.374 10.0275 280.886C16.4504 274.399 25.1615 270.754 34.2446 270.754C43.3277 270.754 52.0389 274.399 58.4617 280.886C64.8844 287.374 68.4927 296.173 68.4927 305.348H41.0937C56.7264 308.553 68.4927 322.514 68.4927 339.25C68.4927 355.987 56.7264 369.947 41.0935 373.152H68.4927C68.4927 382.327 64.8844 391.126 58.4617 397.614C52.0389 404.101 43.3277 407.746 34.2446 407.746C25.1615 407.746 16.4504 404.101 10.0275 397.614Z" fill="url(#paint0_linear_231_40)"/>
<path d="M34.2446 203.65C53.1593 203.65 68.4927 218.984 68.4927 237.898C68.4927 256.813 53.1593 272.146 34.2446 272.146C15.33 272.146 -0.00341797 256.813 -0.00341797 237.898C-0.00341797 218.984 15.33 203.65 34.2446 203.65Z" fill="#D9D9D9"/>
<path d="M34.2446 203.65C53.1593 203.65 68.4927 218.984 68.4927 237.898C68.4927 256.813 53.1593 272.146 34.2446 272.146C15.33 272.146 -0.00341797 256.813 -0.00341797 237.898C-0.00341797 218.984 15.33 203.65 34.2446 203.65Z" fill="url(#paint1_linear_231_40)"/>
<path d="M10.0275 194.93C3.60488 188.442 -0.00341797 179.643 -0.00341797 170.468H27.3955C11.7629 167.263 -0.00341797 153.303 -0.00341797 136.566C-0.00341797 119.83 11.7629 105.869 27.3955 102.664H-0.00341797C-0.00341797 93.4892 3.60488 84.6901 10.0275 78.2024C16.4504 71.7148 25.1615 68.0701 34.2446 68.0701C43.3277 68.0701 52.0389 71.7148 58.4617 78.2024C64.8844 84.6901 68.4927 93.4892 68.4927 102.664H41.0937C56.7264 105.869 68.4927 119.83 68.4927 136.566C68.4927 153.303 56.7264 167.263 41.0935 170.468H68.4927C68.4927 179.643 64.8844 188.442 58.4617 194.93C52.0389 201.418 43.3277 205.062 34.2446 205.062C25.1615 205.062 16.4504 201.418 10.0275 194.93Z" fill="#D9D9D9"/>
<path d="M10.0275 194.93C3.60488 188.442 -0.00341797 179.643 -0.00341797 170.468H27.3955C11.7629 167.263 -0.00341797 153.303 -0.00341797 136.566C-0.00341797 119.83 11.7629 105.869 27.3955 102.664H-0.00341797C-0.00341797 93.4892 3.60488 84.6901 10.0275 78.2024C16.4504 71.7148 25.1615 68.0701 34.2446 68.0701C43.3277 68.0701 52.0389 71.7148 58.4617 78.2024C64.8844 84.6901 68.4927 93.4892 68.4927 102.664H41.0937C56.7264 105.869 68.4927 119.83 68.4927 136.566C68.4927 153.303 56.7264 167.263 41.0935 170.468H68.4927C68.4927 179.643 64.8844 188.442 58.4617 194.93C52.0389 201.418 43.3277 205.062 34.2446 205.062C25.1615 205.062 16.4504 201.418 10.0275 194.93Z" fill="url(#paint2_linear_231_40)"/>
<path d="M34.2446 0.966565C53.1593 0.966565 68.4927 16.2999 68.4927 35.2146C68.4927 54.1293 53.1593 69.4626 34.2446 69.4626C15.33 69.4626 -0.00341797 54.1293 -0.00341797 35.2146C-0.00341797 16.2999 15.33 0.966565 34.2446 0.966565Z" fill="#D9D9D9"/>
<path d="M34.2446 0.966565C53.1593 0.966565 68.4927 16.2999 68.4927 35.2146C68.4927 54.1293 53.1593 69.4626 34.2446 69.4626C15.33 69.4626 -0.00341797 54.1293 -0.00341797 35.2146C-0.00341797 16.2999 15.33 0.966565 34.2446 0.966565Z" fill="url(#paint3_linear_231_40)"/>
<path d="M77.125 397.614C70.7023 391.126 67.094 382.327 67.094 373.152H94.493C78.8603 369.947 67.094 355.987 67.094 339.25C67.094 322.514 78.8603 308.553 94.493 305.348H67.094C67.094 296.173 70.7023 287.374 77.125 280.886C83.5478 274.399 92.259 270.754 101.342 270.754C110.425 270.754 119.136 274.399 125.559 280.886C131.982 287.374 135.59 296.173 135.59 305.348H108.191C123.824 308.553 135.59 322.514 135.59 339.25C135.59 355.987 123.824 369.947 108.191 373.152H135.59C135.59 382.327 131.982 391.126 125.559 397.614C119.136 404.101 110.425 407.746 101.342 407.746C92.259 407.746 83.5478 404.101 77.125 397.614Z" fill="#D9D9D9"/>
<path d="M77.125 397.614C70.7023 391.126 67.094 382.327 67.094 373.152H94.493C78.8603 369.947 67.094 355.987 67.094 339.25C67.094 322.514 78.8603 308.553 94.493 305.348H67.094C67.094 296.173 70.7023 287.374 77.125 280.886C83.5478 274.399 92.259 270.754 101.342 270.754C110.425 270.754 119.136 274.399 125.559 280.886C131.982 287.374 135.59 296.173 135.59 305.348H108.191C123.824 308.553 135.59 322.514 135.59 339.25C135.59 355.987 123.824 369.947 108.191 373.152H135.59C135.59 382.327 131.982 391.126 125.559 397.614C119.136 404.101 110.425 407.746 101.342 407.746C92.259 407.746 83.5478 404.101 77.125 397.614Z" fill="url(#paint4_linear_231_40)"/>
<path d="M101.342 203.65C120.257 203.65 135.59 218.984 135.59 237.898C135.59 256.813 120.257 272.146 101.342 272.146C82.4274 272.146 67.094 256.813 67.094 237.898C67.094 218.984 82.4274 203.65 101.342 203.65Z" fill="#D9D9D9"/>
<path d="M101.342 203.65C120.257 203.65 135.59 218.984 135.59 237.898C135.59 256.813 120.257 272.146 101.342 272.146C82.4274 272.146 67.094 256.813 67.094 237.898C67.094 218.984 82.4274 203.65 101.342 203.65Z" fill="url(#paint5_linear_231_40)"/>
<path d="M77.125 194.93C70.7023 188.442 67.094 179.643 67.094 170.468H94.493C78.8603 167.263 67.094 153.303 67.094 136.566C67.094 119.83 78.8603 105.869 94.493 102.664H67.094C67.094 93.4892 70.7023 84.6901 77.125 78.2024C83.5478 71.7148 92.259 68.0701 101.342 68.0701C110.425 68.0701 119.136 71.7148 125.559 78.2024C131.982 84.6901 135.59 93.4892 135.59 102.664H108.191C123.824 105.869 135.59 119.83 135.59 136.566C135.59 153.303 123.824 167.263 108.191 170.468H135.59C135.59 179.643 131.982 188.442 125.559 194.93C119.136 201.418 110.425 205.062 101.342 205.062C92.259 205.062 83.5478 201.418 77.125 194.93Z" fill="#D9D9D9"/>
<path d="M77.125 194.93C70.7023 188.442 67.094 179.643 67.094 170.468H94.493C78.8603 167.263 67.094 153.303 67.094 136.566C67.094 119.83 78.8603 105.869 94.493 102.664H67.094C67.094 93.4892 70.7023 84.6901 77.125 78.2024C83.5478 71.7148 92.259 68.0701 101.342 68.0701C110.425 68.0701 119.136 71.7148 125.559 78.2024C131.982 84.6901 135.59 93.4892 135.59 102.664H108.191C123.824 105.869 135.59 119.83 135.59 136.566C135.59 153.303 123.824 167.263 108.191 170.468H135.59C135.59 179.643 131.982 188.442 125.559 194.93C119.136 201.418 110.425 205.062 101.342 205.062C92.259 205.062 83.5478 201.418 77.125 194.93Z" fill="url(#paint6_linear_231_40)"/>
<path d="M101.342 0.966565C120.257 0.966565 135.59 16.2999 135.59 35.2146C135.59 54.1293 120.257 69.4626 101.342 69.4626C82.4274 69.4626 67.094 54.1293 67.094 35.2146C67.094 16.2999 82.4274 0.966565 101.342 0.966565Z" fill="#D9D9D9"/>
<path d="M101.342 0.966565C120.257 0.966565 135.59 16.2999 135.59 35.2146C135.59 54.1293 120.257 69.4626 101.342 69.4626C82.4274 69.4626 67.094 54.1293 67.094 35.2146C67.094 16.2999 82.4274 0.966565 101.342 0.966565Z" fill="url(#paint7_linear_231_40)"/>
<defs>
<linearGradient id="paint0_linear_231_40" x1="101.342" y1="515.859" x2="101.342" y2="-1.86045" gradientUnits="userSpaceOnUse">
<stop stop-color="#9DD9EE"/>
<stop offset="1" stop-color="#03A689"/>
</linearGradient>
<linearGradient id="paint1_linear_231_40" x1="101.342" y1="515.859" x2="101.342" y2="-1.86045" gradientUnits="userSpaceOnUse">
<stop stop-color="#9DD9EE"/>
<stop offset="1" stop-color="#03A689"/>
</linearGradient>
<linearGradient id="paint2_linear_231_40" x1="101.342" y1="515.859" x2="101.342" y2="-1.86045" gradientUnits="userSpaceOnUse">
<stop stop-color="#9DD9EE"/>
<stop offset="1" stop-color="#03A689"/>
</linearGradient>
<linearGradient id="paint3_linear_231_40" x1="101.342" y1="515.859" x2="101.342" y2="-1.86045" gradientUnits="userSpaceOnUse">
<stop stop-color="#9DD9EE"/>
<stop offset="1" stop-color="#03A689"/>
</linearGradient>
<linearGradient id="paint4_linear_231_40" x1="101.342" y1="515.859" x2="101.342" y2="-1.86045" gradientUnits="userSpaceOnUse">
<stop stop-color="#9DD9EE"/>
<stop offset="1" stop-color="#03A689"/>
</linearGradient>
<linearGradient id="paint5_linear_231_40" x1="101.342" y1="515.859" x2="101.342" y2="-1.86045" gradientUnits="userSpaceOnUse">
<stop stop-color="#9DD9EE"/>
<stop offset="1" stop-color="#03A689"/>
</linearGradient>
<linearGradient id="paint6_linear_231_40" x1="101.342" y1="515.859" x2="101.342" y2="-1.86045" gradientUnits="userSpaceOnUse">
<stop stop-color="#9DD9EE"/>
<stop offset="1" stop-color="#03A689"/>
</linearGradient>
<linearGradient id="paint7_linear_231_40" x1="101.342" y1="515.859" x2="101.342" y2="-1.86045" gradientUnits="userSpaceOnUse">
<stop stop-color="#9DD9EE"/>
<stop offset="1" stop-color="#03A689"/>
</linearGradient>
</defs>
</svg>
